<svg width="808" height="376" viewBox="0 0 808 376" fill="none" xmlns="http://www.w3.org/2000/svg">
<rect x="1" y="1" width="806" height="374" rx="14" fill="white"/>
<rect x="1" y="1" width="806" height="374" rx="14" stroke="#EDF2F7"/>
<path d="M27.084 42.716C26.244 42.716 25.464 42.56 24.744 42.248C24.024 41.924 23.412 41.486 22.908 40.934C22.404 40.382 22.032 39.746 21.792 39.026L23.592 38.27C23.916 39.098 24.39 39.734 25.014 40.178C25.638 40.622 26.358 40.844 27.174 40.844C27.654 40.844 28.074 40.772 28.434 40.628C28.794 40.472 29.07 40.256 29.262 39.98C29.466 39.704 29.568 39.386 29.568 39.026C29.568 38.534 29.43 38.144 29.154 37.856C28.878 37.568 28.47 37.34 27.93 37.172L25.41 36.38C24.402 36.068 23.634 35.594 23.106 34.958C22.578 34.31 22.314 33.554 22.314 32.69C22.314 31.934 22.5 31.274 22.872 30.71C23.244 30.134 23.754 29.684 24.402 29.36C25.062 29.036 25.812 28.874 26.652 28.874C27.456 28.874 28.188 29.018 28.848 29.306C29.508 29.582 30.072 29.966 30.54 30.458C31.02 30.95 31.368 31.52 31.584 32.168L29.82 32.942C29.556 32.234 29.142 31.688 28.578 31.304C28.026 30.92 27.384 30.728 26.652 30.728C26.208 30.728 25.818 30.806 25.482 30.962C25.146 31.106 24.882 31.322 24.69 31.61C24.51 31.886 24.42 32.21 24.42 32.582C24.42 33.014 24.558 33.398 24.834 33.734C25.11 34.07 25.53 34.322 26.094 34.49L28.434 35.228C29.502 35.552 30.306 36.02 30.846 36.632C31.386 37.232 31.656 37.982 31.656 38.882C31.656 39.626 31.458 40.286 31.062 40.862C30.678 41.438 30.144 41.894 29.46 42.23C28.776 42.554 27.984 42.716 27.084 42.716ZM36.5825 42.716C35.9225 42.716 35.3405 42.602 34.8365 42.374C34.3445 42.134 33.9605 41.81 33.6845 41.402C33.4085 40.982 33.2705 40.49 33.2705 39.926C33.2705 39.398 33.3845 38.924 33.6125 38.504C33.8525 38.084 34.2185 37.73 34.7105 37.442C35.2025 37.154 35.8205 36.95 36.5645 36.83L39.9485 36.272V37.874L36.9605 38.396C36.4205 38.492 36.0245 38.666 35.7725 38.918C35.5205 39.158 35.3945 39.47 35.3945 39.854C35.3945 40.226 35.5325 40.532 35.8085 40.772C36.0965 41 36.4625 41.114 36.9065 41.114C37.4585 41.114 37.9385 40.994 38.3465 40.754C38.7665 40.514 39.0905 40.196 39.3185 39.8C39.5465 39.392 39.6605 38.942 39.6605 38.45V35.948C39.6605 35.468 39.4805 35.078 39.1205 34.778C38.7725 34.466 38.3045 34.31 37.7165 34.31C37.1765 34.31 36.7025 34.454 36.2945 34.742C35.8985 35.018 35.6045 35.378 35.4125 35.822L33.7205 34.976C33.9005 34.496 34.1945 34.076 34.6025 33.716C35.0105 33.344 35.4845 33.056 36.0245 32.852C36.5765 32.648 37.1585 32.546 37.7705 32.546C38.5385 32.546 39.2165 32.69 39.8045 32.978C40.4045 33.266 40.8665 33.668 41.1905 34.184C41.5265 34.688 41.6945 35.276 41.6945 35.948V42.5H39.7505V40.736L40.1645 40.79C39.9365 41.186 39.6425 41.528 39.2825 41.816C38.9345 42.104 38.5325 42.326 38.0765 42.482C37.6325 42.638 37.1345 42.716 36.5825 42.716ZM44.0728 42.5V28.874H46.1068V42.5H44.0728ZM53.0569 42.716C52.0849 42.716 51.2209 42.494 50.4649 42.05C49.7209 41.594 49.1389 40.982 48.7189 40.214C48.2989 39.434 48.0889 38.564 48.0889 37.604C48.0889 36.62 48.2989 35.75 48.7189 34.994C49.1509 34.238 49.7269 33.644 50.4469 33.212C51.1669 32.768 51.9829 32.546 52.8949 32.546C53.6269 32.546 54.2809 32.672 54.8569 32.924C55.4329 33.176 55.9189 33.524 56.3149 33.968C56.7109 34.4 57.0109 34.898 57.2149 35.462C57.4309 36.026 57.5389 36.626 57.5389 37.262C57.5389 37.418 57.5329 37.58 57.5209 37.748C57.5089 37.916 57.4849 38.072 57.4489 38.216H49.6909V36.596H56.2969L55.3249 37.334C55.4449 36.746 55.4029 36.224 55.1989 35.768C55.0069 35.3 54.7069 34.934 54.2989 34.67C53.9029 34.394 53.4349 34.256 52.8949 34.256C52.3549 34.256 51.8749 34.394 51.4549 34.67C51.0349 34.934 50.7109 35.318 50.4829 35.822C50.2549 36.314 50.1649 36.914 50.2129 37.622C50.1529 38.282 50.2429 38.858 50.4829 39.35C50.7349 39.842 51.0829 40.226 51.5269 40.502C51.9829 40.778 52.4989 40.916 53.0749 40.916C53.6629 40.916 54.1609 40.784 54.5689 40.52C54.9889 40.256 55.3189 39.914 55.5589 39.494L57.2149 40.304C57.0229 40.76 56.7229 41.174 56.3149 41.546C55.9189 41.906 55.4389 42.194 54.8749 42.41C54.3229 42.614 53.7169 42.716 53.0569 42.716ZM63.1239 42.716C62.1279 42.716 61.2519 42.47 60.4959 41.978C59.7519 41.486 59.2299 40.826 58.9299 39.998L60.4959 39.26C60.7599 39.812 61.1199 40.25 61.5759 40.574C62.0439 40.898 62.5599 41.06 63.1239 41.06C63.6039 41.06 63.9939 40.952 64.2939 40.736C64.5939 40.52 64.7439 40.226 64.7439 39.854C64.7439 39.614 64.6779 39.422 64.5459 39.278C64.4139 39.122 64.2459 38.996 64.0419 38.9C63.8499 38.804 63.6519 38.732 63.4479 38.684L61.9179 38.252C61.0779 38.012 60.4479 37.652 60.0279 37.172C59.6199 36.68 59.4159 36.11 59.4159 35.462C59.4159 34.874 59.5659 34.364 59.8659 33.932C60.1659 33.488 60.5799 33.146 61.1079 32.906C61.6359 32.666 62.2299 32.546 62.8899 32.546C63.7779 32.546 64.5699 32.768 65.2659 33.212C65.9619 33.644 66.4539 34.25 66.7419 35.03L65.1759 35.768C64.9839 35.3 64.6779 34.928 64.2579 34.652C63.8499 34.376 63.3879 34.238 62.8719 34.238C62.4279 34.238 62.0739 34.346 61.8099 34.562C61.5459 34.766 61.4139 35.036 61.4139 35.372C61.4139 35.6 61.4739 35.792 61.5939 35.948C61.7139 36.092 61.8699 36.212 62.0619 36.308C62.2539 36.392 62.4519 36.464 62.6559 36.524L64.2399 36.992C65.0439 37.22 65.6619 37.58 66.0939 38.072C66.5259 38.552 66.7419 39.128 66.7419 39.8C66.7419 40.376 66.5859 40.886 66.2739 41.33C65.9739 41.762 65.5539 42.104 65.0139 42.356C64.4739 42.596 63.8439 42.716 63.1239 42.716ZM74.4554 42.5V30.98H70.8914V29.09H80.0714V30.98H76.5614V42.5H74.4554ZM80.3892 42.5V32.762H82.3332V34.724L82.1532 34.436C82.3692 33.8 82.7172 33.344 83.1972 33.068C83.6772 32.78 84.2532 32.636 84.9252 32.636H85.5192V34.49H84.6732C84.0012 34.49 83.4552 34.7 83.0352 35.12C82.6272 35.528 82.4232 36.116 82.4232 36.884V42.5H80.3892ZM91.4827 42.716C90.5107 42.716 89.6467 42.494 88.8907 42.05C88.1467 41.594 87.5647 40.982 87.1447 40.214C86.7247 39.434 86.5147 38.564 86.5147 37.604C86.5147 36.62 86.7247 35.75 87.1447 34.994C87.5767 34.238 88.1527 33.644 88.8727 33.212C89.5927 32.768 90.4087 32.546 91.3207 32.546C92.0527 32.546 92.7067 32.672 93.2827 32.924C93.8587 33.176 94.3447 33.524 94.7407 33.968C95.1367 34.4 95.4367 34.898 95.6407 35.462C95.8567 36.026 95.9647 36.626 95.9647 37.262C95.9647 37.418 95.9587 37.58 95.9467 37.748C95.9347 37.916 95.9107 38.072 95.8747 38.216H88.1167V36.596H94.7227L93.7507 37.334C93.8707 36.746 93.8287 36.224 93.6247 35.768C93.4327 35.3 93.1327 34.934 92.7247 34.67C92.3287 34.394 91.8607 34.256 91.3207 34.256C90.7807 34.256 90.3007 34.394 89.8807 34.67C89.4607 34.934 89.1367 35.318 88.9087 35.822C88.6807 36.314 88.5907 36.914 88.6387 37.622C88.5787 38.282 88.6687 38.858 88.9087 39.35C89.1607 39.842 89.5087 40.226 89.9527 40.502C90.4087 40.778 90.9247 40.916 91.5007 40.916C92.0887 40.916 92.5867 40.784 92.9947 40.52C93.4147 40.256 93.7447 39.914 93.9847 39.494L95.6407 40.304C95.4487 40.76 95.1487 41.174 94.7407 41.546C94.3447 41.906 93.8647 42.194 93.3007 42.41C92.7487 42.614 92.1427 42.716 91.4827 42.716ZM97.9497 42.5V32.762H99.8937V34.67L99.6597 34.418C99.8997 33.806 100.284 33.344 100.812 33.032C101.34 32.708 101.952 32.546 102.648 32.546C103.368 32.546 104.004 32.702 104.556 33.014C105.108 33.326 105.54 33.758 105.852 34.31C106.164 34.862 106.32 35.498 106.32 36.218V42.5H104.304V36.758C104.304 36.266 104.214 35.852 104.034 35.516C103.854 35.168 103.596 34.904 103.26 34.724C102.936 34.532 102.564 34.436 102.144 34.436C101.724 34.436 101.346 34.532 101.01 34.724C100.686 34.904 100.434 35.168 100.254 35.516C100.074 35.864 99.9837 36.278 99.9837 36.758V42.5H97.9497ZM112.997 42.716C112.061 42.716 111.221 42.494 110.477 42.05C109.745 41.594 109.163 40.982 108.731 40.214C108.311 39.446 108.101 38.582 108.101 37.622C108.101 36.662 108.317 35.798 108.749 35.03C109.181 34.262 109.763 33.656 110.495 33.212C111.227 32.768 112.055 32.546 112.979 32.546C113.759 32.546 114.449 32.702 115.049 33.014C115.649 33.326 116.123 33.758 116.471 34.31L116.165 34.778V28.874H118.181V42.5H116.255V40.52L116.489 40.898C116.153 41.486 115.673 41.936 115.049 42.248C114.425 42.56 113.741 42.716 112.997 42.716ZM113.195 40.826C113.759 40.826 114.263 40.688 114.707 40.412C115.163 40.136 115.517 39.758 115.769 39.278C116.033 38.786 116.165 38.234 116.165 37.622C116.165 37.01 116.033 36.464 115.769 35.984C115.517 35.504 115.163 35.126 114.707 34.85C114.263 34.574 113.759 34.436 113.195 34.436C112.631 34.436 112.121 34.574 111.665 34.85C111.209 35.126 110.855 35.504 110.603 35.984C110.351 36.464 110.225 37.01 110.225 37.622C110.225 38.234 110.351 38.786 110.603 39.278C110.855 39.758 111.203 40.136 111.647 40.412C112.103 40.688 112.619 40.826 113.195 40.826ZM124.155 42.716C123.159 42.716 122.283 42.47 121.527 41.978C120.783 41.486 120.261 40.826 119.961 39.998L121.527 39.26C121.791 39.812 122.151 40.25 122.607 40.574C123.075 40.898 123.591 41.06 124.155 41.06C124.635 41.06 125.025 40.952 125.325 40.736C125.625 40.52 125.775 40.226 125.775 39.854C125.775 39.614 125.709 39.422 125.577 39.278C125.445 39.122 125.277 38.996 125.073 38.9C124.881 38.804 124.683 38.732 124.479 38.684L122.949 38.252C122.109 38.012 121.479 37.652 121.059 37.172C120.651 36.68 120.447 36.11 120.447 35.462C120.447 34.874 120.597 34.364 120.897 33.932C121.197 33.488 121.611 33.146 122.139 32.906C122.667 32.666 123.261 32.546 123.921 32.546C124.809 32.546 125.601 32.768 126.297 33.212C126.993 33.644 127.485 34.25 127.773 35.03L126.207 35.768C126.015 35.3 125.709 34.928 125.289 34.652C124.881 34.376 124.419 34.238 123.903 34.238C123.459 34.238 123.105 34.346 122.841 34.562C122.577 34.766 122.445 35.036 122.445 35.372C122.445 35.6 122.505 35.792 122.625 35.948C122.745 36.092 122.901 36.212 123.093 36.308C123.285 36.392 123.483 36.464 123.687 36.524L125.271 36.992C126.075 37.22 126.693 37.58 127.125 38.072C127.557 38.552 127.773 39.128 127.773 39.8C127.773 40.376 127.617 40.886 127.305 41.33C127.005 41.762 126.585 42.104 126.045 42.356C125.505 42.596 124.875 42.716 124.155 42.716Z" fill="#26282C"/>
<path d="M621.746 41.668C621.083 41.668 620.477 41.5467 619.926 41.304C619.375 41.052 618.909 40.7113 618.526 40.282C618.143 39.8527 617.868 39.372 617.7 38.84L618.89 38.35C619.142 39.022 619.515 39.54 620.01 39.904C620.514 40.2587 621.102 40.436 621.774 40.436C622.185 40.436 622.544 40.3707 622.852 40.24C623.16 40.1093 623.398 39.9273 623.566 39.694C623.743 39.4513 623.832 39.1713 623.832 38.854C623.832 38.4153 623.706 38.07 623.454 37.818C623.211 37.5567 622.852 37.3607 622.376 37.23L620.458 36.642C619.702 36.4087 619.123 36.04 618.722 35.536C618.321 35.032 618.12 34.4533 618.12 33.8C618.12 33.2307 618.255 32.7313 618.526 32.302C618.806 31.8633 619.189 31.5227 619.674 31.28C620.169 31.028 620.729 30.902 621.354 30.902C621.979 30.902 622.544 31.014 623.048 31.238C623.561 31.462 623.995 31.7653 624.35 32.148C624.705 32.5213 624.966 32.9507 625.134 33.436L623.958 33.926C623.734 33.338 623.398 32.8947 622.95 32.596C622.502 32.288 621.975 32.134 621.368 32.134C620.995 32.134 620.663 32.1993 620.374 32.33C620.094 32.4513 619.875 32.6333 619.716 32.876C619.567 33.1093 619.492 33.3893 619.492 33.716C619.492 34.0987 619.613 34.4393 619.856 34.738C620.099 35.0367 620.467 35.2653 620.962 35.424L622.712 35.942C623.533 36.194 624.154 36.5533 624.574 37.02C624.994 37.4867 625.204 38.0653 625.204 38.756C625.204 39.3253 625.055 39.8293 624.756 40.268C624.467 40.7067 624.061 41.052 623.538 41.304C623.025 41.5467 622.427 41.668 621.746 41.668ZM627.059 41.5V30.902H628.361V35.424L628.123 35.298C628.309 34.822 628.608 34.4533 629.019 34.192C629.439 33.9213 629.929 33.786 630.489 33.786C631.03 33.786 631.511 33.9073 631.931 34.15C632.36 34.3927 632.696 34.7287 632.939 35.158C633.191 35.5873 633.317 36.0727 633.317 36.614V41.5H632.001V37.034C632.001 36.614 631.921 36.2593 631.763 35.97C631.613 35.6807 631.403 35.4567 631.133 35.298C630.862 35.13 630.549 35.046 630.195 35.046C629.849 35.046 629.537 35.13 629.257 35.298C628.977 35.4567 628.757 35.6853 628.599 35.984C628.44 36.2733 628.361 36.6233 628.361 37.034V41.5H627.059ZM638.764 41.668C638.036 41.668 637.378 41.5 636.79 41.164C636.202 40.8187 635.735 40.3473 635.39 39.75C635.045 39.1527 634.872 38.476 634.872 37.72C634.872 36.964 635.04 36.292 635.376 35.704C635.721 35.116 636.188 34.6493 636.776 34.304C637.364 33.9587 638.027 33.786 638.764 33.786C639.492 33.786 640.15 33.9587 640.738 34.304C641.326 34.64 641.788 35.102 642.124 35.69C642.469 36.278 642.642 36.9547 642.642 37.72C642.642 38.4853 642.465 39.1667 642.11 39.764C641.755 40.352 641.284 40.8187 640.696 41.164C640.117 41.5 639.473 41.668 638.764 41.668ZM638.764 40.408C639.231 40.408 639.651 40.2913 640.024 40.058C640.407 39.8247 640.705 39.5027 640.92 39.092C641.144 38.6813 641.256 38.224 641.256 37.72C641.256 37.2067 641.144 36.754 640.92 36.362C640.705 35.9607 640.407 35.6433 640.024 35.41C639.651 35.1673 639.231 35.046 638.764 35.046C638.288 35.046 637.859 35.1673 637.476 35.41C637.103 35.6433 636.804 35.9607 636.58 36.362C636.356 36.754 636.244 37.2067 636.244 37.72C636.244 38.224 636.356 38.6813 636.58 39.092C636.804 39.5027 637.103 39.8247 637.476 40.058C637.859 40.2913 638.288 40.408 638.764 40.408ZM644.34 41.5V33.954H645.614V35.34L645.474 35.144C645.651 34.7147 645.922 34.3973 646.286 34.192C646.65 33.9773 647.093 33.87 647.616 33.87H648.078V35.102H647.42C646.888 35.102 646.459 35.27 646.132 35.606C645.805 35.9327 645.642 36.3993 645.642 37.006V41.5H644.34ZM652.369 41.584C651.632 41.584 651.062 41.374 650.661 40.954C650.269 40.534 650.073 39.9413 650.073 39.176V35.2H648.701V33.954H648.981C649.317 33.954 649.583 33.8513 649.779 33.646C649.975 33.4407 650.073 33.17 650.073 32.834V32.218H651.375V33.954H653.069V35.2H651.375V39.134C651.375 39.386 651.412 39.6053 651.487 39.792C651.571 39.9787 651.706 40.128 651.893 40.24C652.08 40.3427 652.327 40.394 652.635 40.394C652.7 40.394 652.78 40.3893 652.873 40.38C652.976 40.3707 653.069 40.3613 653.153 40.352V41.5C653.032 41.528 652.896 41.5467 652.747 41.556C652.598 41.5747 652.472 41.584 652.369 41.584ZM661.18 41.668C660.573 41.668 660.018 41.5327 659.514 41.262C659.019 40.9913 658.636 40.6087 658.366 40.114L658.548 39.89V41.5H657.274V30.902H658.576V35.578L658.38 35.256C658.66 34.808 659.042 34.4533 659.528 34.192C660.013 33.9213 660.568 33.786 661.194 33.786C661.903 33.786 662.538 33.9587 663.098 34.304C663.667 34.6493 664.115 35.1207 664.442 35.718C664.768 36.306 664.932 36.978 664.932 37.734C664.932 38.4713 664.768 39.1387 664.442 39.736C664.115 40.3333 663.667 40.8047 663.098 41.15C662.538 41.4953 661.898 41.668 661.18 41.668ZM661.082 40.408C661.558 40.408 661.982 40.2913 662.356 40.058C662.729 39.8247 663.018 39.5073 663.224 39.106C663.438 38.6953 663.546 38.238 663.546 37.734C663.546 37.2113 663.438 36.754 663.224 36.362C663.018 35.9607 662.729 35.6433 662.356 35.41C661.982 35.1673 661.558 35.046 661.082 35.046C660.606 35.046 660.176 35.1627 659.794 35.396C659.42 35.6293 659.122 35.9513 658.898 36.362C658.683 36.7633 658.576 37.2207 658.576 37.734C658.576 38.238 658.683 38.6953 658.898 39.106C659.122 39.5073 659.42 39.8247 659.794 40.058C660.176 40.2913 660.606 40.408 661.082 40.408ZM666.908 44.58C666.74 44.58 666.572 44.566 666.404 44.538C666.236 44.5193 666.077 44.4773 665.928 44.412V43.25C666.031 43.2593 666.157 43.278 666.306 43.306C666.465 43.334 666.619 43.348 666.768 43.348C667.207 43.348 667.538 43.25 667.762 43.054C667.995 42.858 668.215 42.5267 668.42 42.06L668.896 40.926L668.868 42.06L665.648 33.954H667.062L669.568 40.394H669.148L671.64 33.954H673.082L669.68 42.396C669.521 42.7973 669.316 43.166 669.064 43.502C668.821 43.838 668.523 44.0993 668.168 44.286C667.813 44.482 667.393 44.58 666.908 44.58ZM677.192 41.5V39.82H678.55V41.5H677.192ZM677.192 35.634V33.954H678.55V35.634H677.192Z" fill="#3A3F51"/>
<rect x="691.5" y="20" width="95" height="31" rx="15.5" fill="white"/>
<rect x="691.5" y="20" width="95" height="31" rx="15.5" stroke="#E1DFDF"/>
<path d="M705.7 40.5L703.132 31.56H704.104L706.324 39.564H706.12L708.4 31.56H709.42L711.688 39.564H711.472L713.704 31.56H714.676L712.108 40.5H711.088L708.796 32.46H709.012L706.72 40.5H705.7ZM718.184 40.644C717.584 40.644 717.04 40.5 716.552 40.212C716.072 39.916 715.692 39.512 715.412 39C715.132 38.488 714.992 37.908 714.992 37.26C714.992 36.612 715.128 36.04 715.4 35.544C715.672 35.04 716.04 34.644 716.504 34.356C716.976 34.068 717.504 33.924 718.088 33.924C718.552 33.924 718.964 34.012 719.324 34.188C719.692 34.356 720.004 34.588 720.26 34.884C720.516 35.172 720.712 35.5 720.848 35.868C720.984 36.228 721.052 36.6 721.052 36.984C721.052 37.064 721.048 37.156 721.04 37.26C721.032 37.356 721.02 37.456 721.004 37.56H715.568V36.72H720.488L720.056 37.08C720.128 36.64 720.076 36.248 719.9 35.904C719.732 35.552 719.488 35.276 719.168 35.076C718.848 34.868 718.488 34.764 718.088 34.764C717.688 34.764 717.316 34.868 716.972 35.076C716.636 35.284 716.372 35.576 716.18 35.952C715.988 36.32 715.912 36.76 715.952 37.272C715.912 37.784 715.992 38.232 716.192 38.616C716.4 38.992 716.68 39.284 717.032 39.492C717.392 39.7 717.776 39.804 718.184 39.804C718.656 39.804 719.052 39.692 719.372 39.468C719.692 39.244 719.952 38.964 720.152 38.628L720.92 39.036C720.792 39.324 720.596 39.592 720.332 39.84C720.068 40.08 719.752 40.276 719.384 40.428C719.024 40.572 718.624 40.644 718.184 40.644ZM725.567 40.644C724.967 40.644 724.423 40.5 723.935 40.212C723.455 39.916 723.075 39.512 722.795 39C722.515 38.488 722.375 37.908 722.375 37.26C722.375 36.612 722.511 36.04 722.783 35.544C723.055 35.04 723.423 34.644 723.887 34.356C724.359 34.068 724.887 33.924 725.471 33.924C725.935 33.924 726.347 34.012 726.707 34.188C727.075 34.356 727.387 34.588 727.643 34.884C727.899 35.172 728.095 35.5 728.231 35.868C728.367 36.228 728.435 36.6 728.435 36.984C728.435 37.064 728.431 37.156 728.423 37.26C728.415 37.356 728.403 37.456 728.387 37.56H722.951V36.72H727.871L727.439 37.08C727.511 36.64 727.459 36.248 727.283 35.904C727.115 35.552 726.871 35.276 726.551 35.076C726.231 34.868 725.871 34.764 725.471 34.764C725.071 34.764 724.699 34.868 724.355 35.076C724.019 35.284 723.755 35.576 723.563 35.952C723.371 36.32 723.295 36.76 723.335 37.272C723.295 37.784 723.375 38.232 723.575 38.616C723.783 38.992 724.063 39.284 724.415 39.492C724.775 39.7 725.159 39.804 725.567 39.804C726.039 39.804 726.435 39.692 726.755 39.468C727.075 39.244 727.335 38.964 727.535 38.628L728.303 39.036C728.175 39.324 727.979 39.592 727.715 39.84C727.451 40.08 727.135 40.276 726.767 40.428C726.407 40.572 726.007 40.644 725.567 40.644ZM730.022 40.5V31.416H730.922V37.776L730.538 37.716L734.15 34.068H735.314L732.794 36.648L735.542 40.5H734.462L731.882 36.936L732.458 36.984L730.622 38.88L730.922 38.136V40.5H730.022ZM736.596 40.5V31.416H737.496V40.5H736.596ZM739.47 43.14C739.342 43.14 739.21 43.128 739.074 43.104C738.946 43.088 738.818 43.056 738.69 43.008V42.168C738.77 42.176 738.87 42.188 738.99 42.204C739.118 42.228 739.246 42.24 739.374 42.24C739.766 42.24 740.066 42.156 740.274 41.988C740.482 41.828 740.686 41.516 740.886 41.052L741.294 40.092L741.27 40.884L738.546 34.068H739.518L741.75 39.696H741.498L743.718 34.068H744.714L741.774 41.316C741.646 41.628 741.482 41.924 741.282 42.204C741.09 42.484 740.846 42.708 740.55 42.876C740.254 43.052 739.894 43.14 739.47 43.14Z" fill="#3A3F51"/>
<path d="M758.725 32.1413C758.946 31.9194 759.294 31.8992 759.538 32.0808L759.608 32.1413L765 37.5324L770.391 32.1413C770.613 31.9194 770.96 31.8992 771.205 32.0808L771.275 32.1413C771.497 32.3632 771.517 32.7104 771.336 32.9551L771.275 33.0252L765.442 38.8585C765.22 39.0804 764.873 39.1006 764.628 38.919L764.558 38.8585L758.725 33.0252C758.48 32.7811 758.48 32.3854 758.725 32.1413Z" fill="black"/>
<path fill-rule="evenodd" clip-rule="evenodd" d="M91 70.5H786.413H91Z" fill="white"/>
<path d="M91 70.5H786.413" stroke="#EAEAEA" stroke-linecap="round" stroke-dasharray="4 4"/>
<path fill-rule="evenodd" clip-rule="evenodd" d="M91 98.7222H786.413H91Z" fill="white"/>
<path d="M91 98.7222H786.413" stroke="#EAEAEA" stroke-linecap="round" stroke-dasharray="4 4"/>
<path fill-rule="evenodd" clip-rule="evenodd" d="M91 126.944H786.413H91Z" fill="white"/>
<path d="M91 126.944H786.413" stroke="#EAEAEA" stroke-linecap="round" stroke-dasharray="4 4"/>
<path fill-rule="evenodd" clip-rule="evenodd" d="M91 155.167H786.413H91Z" fill="white"/>
<path d="M91 155.167H786.413" stroke="#EAEAEA" stroke-linecap="round" stroke-dasharray="4 4"/>
<path fill-rule="evenodd" clip-rule="evenodd" d="M91 183.389H786.413H91Z" fill="white"/>
<path d="M91 183.389H786.413" stroke="#EAEAEA" stroke-linecap="round" stroke-dasharray="4 4"/>
<path fill-rule="evenodd" clip-rule="evenodd" d="M91 211.611H786.413H91Z" fill="white"/>
<path d="M91 211.611H786.413" stroke="#EAEAEA" stroke-linecap="round" stroke-dasharray="4 4"/>
<path fill-rule="evenodd" clip-rule="evenodd" d="M91 239.833H786.413H91Z" fill="white"/>
<path d="M91 239.833H786.413" stroke="#EAEAEA" stroke-linecap="round" stroke-dasharray="4 4"/>
<path fill-rule="evenodd" clip-rule="evenodd" d="M91 268.056H786.413H91Z" fill="white"/>
<path d="M91 268.056H786.413" stroke="#EAEAEA" stroke-linecap="round" stroke-dasharray="4 4"/>
<path fill-rule="evenodd" clip-rule="evenodd" d="M91 296.278H786.413H91Z" fill="white"/>
<path d="M91 296.278H786.413" stroke="#EAEAEA" stroke-linecap="round" stroke-dasharray="4 4"/>
<path fill-rule="evenodd" clip-rule="evenodd" d="M91 324.5H786.413H91Z" fill="white"/>
<path d="M91 324.5H786.413" stroke="#EAEAEA" stroke-linecap="round" stroke-dasharray="4 4"/>
<g opacity="0.56">
<path d="M95.99 354V352.46H96.592C97.0587 352.46 97.432 352.325 97.712 352.054C97.992 351.774 98.132 351.401 98.132 350.934V343.57H99.77V350.878C99.77 351.513 99.6394 352.063 99.378 352.53C99.126 352.997 98.7574 353.361 98.272 353.622C97.796 353.874 97.236 354 96.592 354H95.99ZM104.021 354.168C103.508 354.168 103.055 354.079 102.663 353.902C102.28 353.715 101.982 353.463 101.767 353.146C101.552 352.819 101.445 352.437 101.445 351.998C101.445 351.587 101.534 351.219 101.711 350.892C101.898 350.565 102.182 350.29 102.565 350.066C102.948 349.842 103.428 349.683 104.007 349.59L106.639 349.156V350.402L104.315 350.808C103.895 350.883 103.587 351.018 103.391 351.214C103.195 351.401 103.097 351.643 103.097 351.942C103.097 352.231 103.204 352.469 103.419 352.656C103.643 352.833 103.928 352.922 104.273 352.922C104.702 352.922 105.076 352.829 105.393 352.642C105.72 352.455 105.972 352.208 106.149 351.9C106.326 351.583 106.415 351.233 106.415 350.85V348.904C106.415 348.531 106.275 348.227 105.995 347.994C105.724 347.751 105.36 347.63 104.903 347.63C104.483 347.63 104.114 347.742 103.797 347.966C103.489 348.181 103.26 348.461 103.111 348.806L101.795 348.148C101.935 347.775 102.164 347.448 102.481 347.168C102.798 346.879 103.167 346.655 103.587 346.496C104.016 346.337 104.469 346.258 104.945 346.258C105.542 346.258 106.07 346.37 106.527 346.594C106.994 346.818 107.353 347.131 107.605 347.532C107.866 347.924 107.997 348.381 107.997 348.904V354H106.485V352.628L106.807 352.67C106.63 352.978 106.401 353.244 106.121 353.468C105.85 353.692 105.538 353.865 105.183 353.986C104.838 354.107 104.45 354.168 104.021 354.168ZM109.847 354V346.426H111.359V347.91L111.177 347.714C111.364 347.238 111.662 346.879 112.073 346.636C112.484 346.384 112.96 346.258 113.501 346.258C114.061 346.258 114.556 346.379 114.985 346.622C115.414 346.865 115.75 347.201 115.993 347.63C116.236 348.059 116.357 348.554 116.357 349.114V354H114.789V349.534C114.789 349.151 114.719 348.829 114.579 348.568C114.439 348.297 114.238 348.092 113.977 347.952C113.725 347.803 113.436 347.728 113.109 347.728C112.782 347.728 112.488 347.803 112.227 347.952C111.975 348.092 111.779 348.297 111.639 348.568C111.499 348.839 111.429 349.161 111.429 349.534V354H109.847Z" fill="#525252"/>
<path d="M154.86 354V343.57H161.65V345.04H156.512V348.176H161.09V349.646H156.512V354H154.86ZM166.233 354.168C165.477 354.168 164.805 353.995 164.217 353.65C163.638 353.295 163.186 352.819 162.859 352.222C162.532 351.615 162.369 350.939 162.369 350.192C162.369 349.427 162.532 348.75 162.859 348.162C163.195 347.574 163.643 347.112 164.203 346.776C164.763 346.431 165.398 346.258 166.107 346.258C166.676 346.258 167.185 346.356 167.633 346.552C168.081 346.748 168.459 347.019 168.767 347.364C169.075 347.7 169.308 348.087 169.467 348.526C169.635 348.965 169.719 349.431 169.719 349.926C169.719 350.047 169.714 350.173 169.705 350.304C169.696 350.435 169.677 350.556 169.649 350.668H163.615V349.408H168.753L167.997 349.982C168.09 349.525 168.058 349.119 167.899 348.764C167.75 348.4 167.516 348.115 167.199 347.91C166.891 347.695 166.527 347.588 166.107 347.588C165.687 347.588 165.314 347.695 164.987 347.91C164.66 348.115 164.408 348.414 164.231 348.806C164.054 349.189 163.984 349.655 164.021 350.206C163.974 350.719 164.044 351.167 164.231 351.55C164.427 351.933 164.698 352.231 165.043 352.446C165.398 352.661 165.799 352.768 166.247 352.768C166.704 352.768 167.092 352.665 167.409 352.46C167.736 352.255 167.992 351.989 168.179 351.662L169.467 352.292C169.318 352.647 169.084 352.969 168.767 353.258C168.459 353.538 168.086 353.762 167.647 353.93C167.218 354.089 166.746 354.168 166.233 354.168ZM175.309 354.168C174.721 354.168 174.184 354.047 173.699 353.804C173.223 353.561 172.854 353.211 172.593 352.754L172.775 352.46V354H171.263V343.402H172.845V347.994L172.593 347.63C172.873 347.201 173.246 346.865 173.713 346.622C174.18 346.379 174.712 346.258 175.309 346.258C176.028 346.258 176.672 346.431 177.241 346.776C177.82 347.121 178.272 347.593 178.599 348.19C178.935 348.787 179.103 349.459 179.103 350.206C179.103 350.953 178.935 351.625 178.599 352.222C178.272 352.819 177.824 353.295 177.255 353.65C176.686 353.995 176.037 354.168 175.309 354.168ZM175.155 352.698C175.603 352.698 176 352.591 176.345 352.376C176.69 352.161 176.961 351.867 177.157 351.494C177.362 351.111 177.465 350.682 177.465 350.206C177.465 349.73 177.362 349.305 177.157 348.932C176.961 348.559 176.69 348.265 176.345 348.05C176 347.835 175.603 347.728 175.155 347.728C174.716 347.728 174.32 347.835 173.965 348.05C173.62 348.265 173.344 348.559 173.139 348.932C172.943 349.305 172.845 349.73 172.845 350.206C172.845 350.682 172.943 351.111 173.139 351.494C173.344 351.867 173.62 352.161 173.965 352.376C174.32 352.591 174.716 352.698 175.155 352.698Z" fill="#525252"/>
<path d="M215.627 354V343.57H217.167L221.087 349.002H220.317L224.167 343.57H225.707V354H224.069V345.516L224.685 345.684L220.751 351.06H220.583L216.733 345.684L217.279 345.516V354H215.627ZM229.977 354.168C229.464 354.168 229.011 354.079 228.619 353.902C228.236 353.715 227.938 353.463 227.723 353.146C227.508 352.819 227.401 352.437 227.401 351.998C227.401 351.587 227.49 351.219 227.667 350.892C227.854 350.565 228.138 350.29 228.521 350.066C228.904 349.842 229.384 349.683 229.963 349.59L232.595 349.156V350.402L230.271 350.808C229.851 350.883 229.543 351.018 229.347 351.214C229.151 351.401 229.053 351.643 229.053 351.942C229.053 352.231 229.16 352.469 229.375 352.656C229.599 352.833 229.884 352.922 230.229 352.922C230.658 352.922 231.032 352.829 231.349 352.642C231.676 352.455 231.928 352.208 232.105 351.9C232.282 351.583 232.371 351.233 232.371 350.85V348.904C232.371 348.531 232.231 348.227 231.951 347.994C231.68 347.751 231.316 347.63 230.859 347.63C230.439 347.63 230.07 347.742 229.753 347.966C229.445 348.181 229.216 348.461 229.067 348.806L227.751 348.148C227.891 347.775 228.12 347.448 228.437 347.168C228.754 346.879 229.123 346.655 229.543 346.496C229.972 346.337 230.425 346.258 230.901 346.258C231.498 346.258 232.026 346.37 232.483 346.594C232.95 346.818 233.309 347.131 233.561 347.532C233.822 347.924 233.953 348.381 233.953 348.904V354H232.441V352.628L232.763 352.67C232.586 352.978 232.357 353.244 232.077 353.468C231.806 353.692 231.494 353.865 231.139 353.986C230.794 354.107 230.406 354.168 229.977 354.168ZM235.803 354V346.426H237.315V347.952L237.175 347.728C237.343 347.233 237.614 346.879 237.987 346.664C238.36 346.44 238.808 346.328 239.331 346.328H239.793V347.77H239.135C238.612 347.77 238.188 347.933 237.861 348.26C237.544 348.577 237.385 349.035 237.385 349.632V354H235.803Z" fill="#525252"/>
<path d="M275.832 354L279.5 343.57H281.544L285.212 354H283.448L282.65 351.662H278.408L277.596 354H275.832ZM278.884 350.192H282.146L280.298 344.732H280.76L278.884 350.192ZM286.295 356.8V346.426H287.807V347.994L287.625 347.63C287.905 347.201 288.278 346.865 288.745 346.622C289.212 346.379 289.744 346.258 290.341 346.258C291.06 346.258 291.704 346.431 292.273 346.776C292.852 347.121 293.304 347.593 293.631 348.19C293.967 348.787 294.135 349.459 294.135 350.206C294.135 350.953 293.967 351.625 293.631 352.222C293.304 352.819 292.856 353.295 292.287 353.65C291.718 353.995 291.069 354.168 290.341 354.168C289.753 354.168 289.216 354.047 288.731 353.804C288.255 353.561 287.886 353.211 287.625 352.754L287.877 352.46V356.8H286.295ZM290.187 352.698C290.635 352.698 291.032 352.591 291.377 352.376C291.722 352.161 291.993 351.867 292.189 351.494C292.394 351.111 292.497 350.682 292.497 350.206C292.497 349.73 292.394 349.305 292.189 348.932C291.993 348.559 291.722 348.265 291.377 348.05C291.032 347.835 290.635 347.728 290.187 347.728C289.748 347.728 289.352 347.835 288.997 348.05C288.652 348.265 288.376 348.559 288.171 348.932C287.975 349.305 287.877 349.73 287.877 350.206C287.877 350.682 287.975 351.111 288.171 351.494C288.376 351.867 288.652 352.161 288.997 352.376C289.352 352.591 289.748 352.698 290.187 352.698ZM295.674 354V346.426H297.186V347.952L297.046 347.728C297.214 347.233 297.485 346.879 297.858 346.664C298.231 346.44 298.679 346.328 299.202 346.328H299.664V347.77H299.006C298.483 347.77 298.059 347.933 297.732 348.26C297.415 348.577 297.256 349.035 297.256 349.632V354H295.674Z" fill="#525252"/>
<path d="M337.201 354V343.57H338.741L342.661 349.002H341.891L345.741 343.57H347.281V354H345.643V345.516L346.259 345.684L342.325 351.06H342.157L338.307 345.684L338.853 345.516V354H337.201ZM352.839 354.168C352.083 354.168 351.411 353.995 350.823 353.65C350.245 353.295 349.792 352.819 349.465 352.222C349.139 351.615 348.975 350.939 348.975 350.192C348.975 349.427 349.139 348.75 349.465 348.162C349.801 347.574 350.249 347.112 350.809 346.776C351.369 346.431 352.004 346.258 352.713 346.258C353.283 346.258 353.791 346.356 354.239 346.552C354.687 346.748 355.065 347.019 355.373 347.364C355.681 347.7 355.915 348.087 356.073 348.526C356.241 348.965 356.325 349.431 356.325 349.926C356.325 350.047 356.321 350.173 356.311 350.304C356.302 350.435 356.283 350.556 356.255 350.668H350.221V349.408H355.359L354.603 349.982C354.697 349.525 354.664 349.119 354.505 348.764C354.356 348.4 354.123 348.115 353.805 347.91C353.497 347.695 353.133 347.588 352.713 347.588C352.293 347.588 351.92 347.695 351.593 347.91C351.267 348.115 351.015 348.414 350.837 348.806C350.66 349.189 350.59 349.655 350.627 350.206C350.581 350.719 350.651 351.167 350.837 351.55C351.033 351.933 351.304 352.231 351.649 352.446C352.004 352.661 352.405 352.768 352.853 352.768C353.311 352.768 353.698 352.665 354.015 352.46C354.342 352.255 354.599 351.989 354.785 351.662L356.073 352.292C355.924 352.647 355.691 352.969 355.373 353.258C355.065 353.538 354.692 353.762 354.253 353.93C353.824 354.089 353.353 354.168 352.839 354.168ZM357.869 354V346.426H359.451V354H357.869ZM357.869 345.39V343.57H359.451V345.39H357.869Z" fill="#525252"/>
<path d="M398.435 354V352.46H399.037C399.504 352.46 399.877 352.325 400.157 352.054C400.437 351.774 400.577 351.401 400.577 350.934V343.57H402.215V350.878C402.215 351.513 402.085 352.063 401.823 352.53C401.571 352.997 401.203 353.361 400.717 353.622C400.241 353.874 399.681 354 399.037 354H398.435ZM406.9 354.168C406.331 354.168 405.832 354.042 405.402 353.79C404.973 353.529 404.637 353.169 404.394 352.712C404.161 352.245 404.044 351.709 404.044 351.102V346.426H405.626V350.962C405.626 351.307 405.696 351.611 405.836 351.872C405.976 352.133 406.172 352.339 406.424 352.488C406.676 352.628 406.966 352.698 407.292 352.698C407.628 352.698 407.922 352.623 408.174 352.474C408.426 352.325 408.622 352.115 408.762 351.844C408.912 351.573 408.986 351.256 408.986 350.892V346.426H410.554V354H409.056V352.516L409.224 352.712C409.047 353.179 408.753 353.538 408.342 353.79C407.932 354.042 407.451 354.168 406.9 354.168ZM412.402 354V346.426H413.914V347.91L413.732 347.714C413.918 347.238 414.217 346.879 414.628 346.636C415.038 346.384 415.514 346.258 416.056 346.258C416.616 346.258 417.11 346.379 417.54 346.622C417.969 346.865 418.305 347.201 418.548 347.63C418.79 348.059 418.912 348.554 418.912 349.114V354H417.344V349.534C417.344 349.151 417.274 348.829 417.134 348.568C416.994 348.297 416.793 348.092 416.532 347.952C416.28 347.803 415.99 347.728 415.664 347.728C415.337 347.728 415.043 347.803 414.782 347.952C414.53 348.092 414.334 348.297 414.194 348.568C414.054 348.839 413.984 349.161 413.984 349.534V354H412.402Z" fill="#525252"/>
<path d="M461.321 354V352.46H461.923C462.39 352.46 462.763 352.325 463.043 352.054C463.323 351.774 463.463 351.401 463.463 350.934V343.57H465.101V350.878C465.101 351.513 464.97 352.063 464.709 352.53C464.457 352.997 464.088 353.361 463.603 353.622C463.127 353.874 462.567 354 461.923 354H461.321ZM469.786 354.168C469.217 354.168 468.717 354.042 468.288 353.79C467.859 353.529 467.523 353.169 467.28 352.712C467.047 352.245 466.93 351.709 466.93 351.102V346.426H468.512V350.962C468.512 351.307 468.582 351.611 468.722 351.872C468.862 352.133 469.058 352.339 469.31 352.488C469.562 352.628 469.851 352.698 470.178 352.698C470.514 352.698 470.808 352.623 471.06 352.474C471.312 352.325 471.508 352.115 471.648 351.844C471.797 351.573 471.872 351.256 471.872 350.892V346.426H473.44V354H471.942V352.516L472.11 352.712C471.933 353.179 471.639 353.538 471.228 353.79C470.817 354.042 470.337 354.168 469.786 354.168ZM475.287 354V343.402H476.869V354H475.287Z" fill="#525252"/>
<path d="M516.437 354L520.105 343.57H522.149L525.817 354H524.053L523.255 351.662H519.013L518.201 354H516.437ZM519.489 350.192H522.751L520.903 344.732H521.365L519.489 350.192ZM529.466 354.168C528.897 354.168 528.397 354.042 527.968 353.79C527.539 353.529 527.203 353.169 526.96 352.712C526.727 352.245 526.61 351.709 526.61 351.102V346.426H528.192V350.962C528.192 351.307 528.262 351.611 528.402 351.872C528.542 352.133 528.738 352.339 528.99 352.488C529.242 352.628 529.531 352.698 529.858 352.698C530.194 352.698 530.488 352.623 530.74 352.474C530.992 352.325 531.188 352.115 531.328 351.844C531.477 351.573 531.552 351.256 531.552 350.892V346.426H533.12V354H531.622V352.516L531.79 352.712C531.613 353.179 531.319 353.538 530.908 353.79C530.497 354.042 530.017 354.168 529.466 354.168ZM538.621 357.08C538.07 357.08 537.562 356.991 537.095 356.814C536.628 356.637 536.227 356.389 535.891 356.072C535.555 355.764 535.303 355.4 535.135 354.98L536.591 354.378C536.722 354.733 536.96 355.027 537.305 355.26C537.66 355.493 538.094 355.61 538.607 355.61C539.008 355.61 539.368 355.531 539.685 355.372C540.002 355.223 540.254 354.999 540.441 354.7C540.628 354.411 540.721 354.061 540.721 353.65V351.942L541.001 352.264C540.74 352.749 540.376 353.118 539.909 353.37C539.452 353.622 538.934 353.748 538.355 353.748C537.655 353.748 537.025 353.585 536.465 353.258C535.905 352.931 535.462 352.483 535.135 351.914C534.818 351.345 534.659 350.705 534.659 349.996C534.659 349.277 534.818 348.638 535.135 348.078C535.462 347.518 535.9 347.075 536.451 346.748C537.002 346.421 537.632 346.258 538.341 346.258C538.92 346.258 539.433 346.384 539.881 346.636C540.338 346.879 540.712 347.233 541.001 347.7L540.791 348.092V346.426H542.289V353.65C542.289 354.303 542.13 354.887 541.813 355.4C541.505 355.923 541.076 356.333 540.525 356.632C539.974 356.931 539.34 357.08 538.621 357.08ZM538.537 352.278C538.957 352.278 539.33 352.18 539.657 351.984C539.984 351.779 540.24 351.508 540.427 351.172C540.623 350.827 540.721 350.439 540.721 350.01C540.721 349.581 540.623 349.193 540.427 348.848C540.231 348.503 539.97 348.232 539.643 348.036C539.316 347.831 538.948 347.728 538.537 347.728C538.108 347.728 537.725 347.831 537.389 348.036C537.053 348.232 536.787 348.503 536.591 348.848C536.404 349.184 536.311 349.571 536.311 350.01C536.311 350.43 536.404 350.813 536.591 351.158C536.787 351.503 537.053 351.779 537.389 351.984C537.725 352.18 538.108 352.278 538.537 352.278Z" fill="#525252"/>
<path d="M581.467 354.168C580.814 354.168 580.207 354.047 579.647 353.804C579.087 353.552 578.611 353.211 578.219 352.782C577.827 352.353 577.538 351.858 577.351 351.298L578.751 350.71C579.003 351.354 579.372 351.849 579.857 352.194C580.343 352.539 580.903 352.712 581.537 352.712C581.911 352.712 582.237 352.656 582.517 352.544C582.797 352.423 583.012 352.255 583.161 352.04C583.32 351.825 583.399 351.578 583.399 351.298C583.399 350.915 583.292 350.612 583.077 350.388C582.863 350.164 582.545 349.987 582.125 349.856L580.165 349.24C579.381 348.997 578.784 348.629 578.373 348.134C577.963 347.63 577.757 347.042 577.757 346.37C577.757 345.782 577.902 345.269 578.191 344.83C578.481 344.382 578.877 344.032 579.381 343.78C579.895 343.528 580.478 343.402 581.131 343.402C581.757 343.402 582.326 343.514 582.839 343.738C583.353 343.953 583.791 344.251 584.155 344.634C584.529 345.017 584.799 345.46 584.967 345.964L583.595 346.566C583.39 346.015 583.068 345.591 582.629 345.292C582.2 344.993 581.701 344.844 581.131 344.844C580.786 344.844 580.483 344.905 580.221 345.026C579.96 345.138 579.755 345.306 579.605 345.53C579.465 345.745 579.395 345.997 579.395 346.286C579.395 346.622 579.503 346.921 579.717 347.182C579.932 347.443 580.259 347.639 580.697 347.77L582.517 348.344C583.348 348.596 583.973 348.96 584.393 349.436C584.813 349.903 585.023 350.486 585.023 351.186C585.023 351.765 584.869 352.278 584.561 352.726C584.263 353.174 583.847 353.529 583.315 353.79C582.783 354.042 582.167 354.168 581.467 354.168ZM590.28 354.168C589.524 354.168 588.852 353.995 588.264 353.65C587.685 353.295 587.232 352.819 586.906 352.222C586.579 351.615 586.416 350.939 586.416 350.192C586.416 349.427 586.579 348.75 586.906 348.162C587.242 347.574 587.69 347.112 588.25 346.776C588.81 346.431 589.444 346.258 590.154 346.258C590.723 346.258 591.232 346.356 591.68 346.552C592.128 346.748 592.506 347.019 592.814 347.364C593.122 347.7 593.355 348.087 593.514 348.526C593.682 348.965 593.766 349.431 593.766 349.926C593.766 350.047 593.761 350.173 593.752 350.304C593.742 350.435 593.724 350.556 593.696 350.668H587.662V349.408H592.8L592.044 349.982C592.137 349.525 592.104 349.119 591.946 348.764C591.796 348.4 591.563 348.115 591.246 347.91C590.938 347.695 590.574 347.588 590.154 347.588C589.734 347.588 589.36 347.695 589.034 347.91C588.707 348.115 588.455 348.414 588.278 348.806C588.1 349.189 588.03 349.655 588.068 350.206C588.021 350.719 588.091 351.167 588.278 351.55C588.474 351.933 588.744 352.231 589.09 352.446C589.444 352.661 589.846 352.768 590.294 352.768C590.751 352.768 591.138 352.665 591.456 352.46C591.782 352.255 592.039 351.989 592.226 351.662L593.514 352.292C593.364 352.647 593.131 352.969 592.814 353.258C592.506 353.538 592.132 353.762 591.694 353.93C591.264 354.089 590.793 354.168 590.28 354.168ZM595.31 356.8V346.426H596.822V347.994L596.64 347.63C596.92 347.201 597.293 346.865 597.76 346.622C598.226 346.379 598.758 346.258 599.356 346.258C600.074 346.258 600.718 346.431 601.288 346.776C601.866 347.121 602.319 347.593 602.646 348.19C602.982 348.787 603.15 349.459 603.15 350.206C603.15 350.953 602.982 351.625 602.646 352.222C602.319 352.819 601.871 353.295 601.302 353.65C600.732 353.995 600.084 354.168 599.356 354.168C598.768 354.168 598.231 354.047 597.746 353.804C597.27 353.561 596.901 353.211 596.64 352.754L596.892 352.46V356.8H595.31ZM599.202 352.698C599.65 352.698 600.046 352.591 600.392 352.376C600.737 352.161 601.008 351.867 601.204 351.494C601.409 351.111 601.512 350.682 601.512 350.206C601.512 349.73 601.409 349.305 601.204 348.932C601.008 348.559 600.737 348.265 600.392 348.05C600.046 347.835 599.65 347.728 599.202 347.728C598.763 347.728 598.366 347.835 598.012 348.05C597.666 348.265 597.391 348.559 597.186 348.932C596.99 349.305 596.892 349.73 596.892 350.206C596.892 350.682 596.99 351.111 597.186 351.494C597.391 351.867 597.666 352.161 598.012 352.376C598.366 352.591 598.763 352.698 599.202 352.698Z" fill="#525252"/>
<path d="M643.942 354.168C643.186 354.168 642.481 354.033 641.828 353.762C641.184 353.491 640.615 353.113 640.12 352.628C639.635 352.143 639.252 351.573 638.972 350.92C638.701 350.267 638.566 349.553 638.566 348.778C638.566 348.003 638.701 347.289 638.972 346.636C639.252 345.973 639.635 345.404 640.12 344.928C640.605 344.443 641.175 344.069 641.828 343.808C642.481 343.537 643.186 343.402 643.942 343.402C644.707 343.402 645.412 343.537 646.056 343.808C646.709 344.069 647.279 344.443 647.764 344.928C648.259 345.413 648.641 345.983 648.912 346.636C649.183 347.289 649.318 348.003 649.318 348.778C649.318 349.553 649.178 350.267 648.898 350.92C648.627 351.573 648.249 352.143 647.764 352.628C647.279 353.113 646.709 353.491 646.056 353.762C645.403 354.033 644.698 354.168 643.942 354.168ZM643.942 352.656C644.483 352.656 644.978 352.558 645.426 352.362C645.883 352.166 646.28 351.895 646.616 351.55C646.952 351.195 647.213 350.785 647.4 350.318C647.587 349.842 647.68 349.329 647.68 348.778C647.68 348.227 647.587 347.719 647.4 347.252C647.213 346.785 646.952 346.375 646.616 346.02C646.28 345.665 645.883 345.39 645.426 345.194C644.978 344.998 644.483 344.9 643.942 344.9C643.401 344.9 642.901 344.998 642.444 345.194C641.996 345.39 641.604 345.665 641.268 346.02C640.932 346.375 640.671 346.785 640.484 347.252C640.307 347.719 640.218 348.227 640.218 348.778C640.218 349.329 640.307 349.842 640.484 350.318C640.671 350.785 640.932 351.195 641.268 351.55C641.604 351.895 642.001 352.166 642.458 352.362C642.915 352.558 643.41 352.656 643.942 352.656ZM651.011 354V343.402H652.593V350.5L651.977 350.346L655.771 346.426H657.745L654.889 349.464L657.871 354H656.051L653.391 349.982L654.329 349.856L652.089 352.236L652.593 351.186V354H651.011ZM662.23 354.084C661.437 354.084 660.821 353.86 660.382 353.412C659.944 352.964 659.724 352.334 659.724 351.522V347.854H658.394V346.426H658.604C658.959 346.426 659.234 346.323 659.43 346.118C659.626 345.913 659.724 345.633 659.724 345.278V344.69H661.306V346.426H663.028V347.854H661.306V351.452C661.306 351.713 661.348 351.937 661.432 352.124C661.516 352.301 661.652 352.441 661.838 352.544C662.025 352.637 662.268 352.684 662.566 352.684C662.641 352.684 662.725 352.679 662.818 352.67C662.912 352.661 663 352.651 663.084 352.642V354C662.954 354.019 662.809 354.037 662.65 354.056C662.492 354.075 662.352 354.084 662.23 354.084Z" fill="#525252"/>
<path d="M698.8 354V343.57H700.13L705.982 351.648L705.352 351.746V343.57H706.99V354H705.66L699.85 345.866L700.452 345.754V354H698.8ZM712.649 354.168C711.921 354.168 711.254 353.995 710.647 353.65C710.05 353.305 709.574 352.833 709.219 352.236C708.865 351.639 708.687 350.962 708.687 350.206C708.687 349.441 708.865 348.764 709.219 348.176C709.574 347.579 710.05 347.112 710.647 346.776C711.245 346.431 711.912 346.258 712.649 346.258C713.396 346.258 714.063 346.431 714.651 346.776C715.249 347.112 715.72 347.579 716.065 348.176C716.42 348.764 716.597 349.441 716.597 350.206C716.597 350.971 716.42 351.653 716.065 352.25C715.711 352.847 715.235 353.319 714.637 353.664C714.04 354 713.377 354.168 712.649 354.168ZM712.649 352.698C713.097 352.698 713.494 352.591 713.839 352.376C714.185 352.161 714.455 351.867 714.651 351.494C714.857 351.111 714.959 350.682 714.959 350.206C714.959 349.73 714.857 349.305 714.651 348.932C714.455 348.559 714.185 348.265 713.839 348.05C713.494 347.835 713.097 347.728 712.649 347.728C712.211 347.728 711.814 347.835 711.459 348.05C711.114 348.265 710.839 348.559 710.633 348.932C710.437 349.305 710.339 349.73 710.339 350.206C710.339 350.682 710.437 351.111 710.633 351.494C710.839 351.867 711.114 352.161 711.459 352.376C711.814 352.591 712.211 352.698 712.649 352.698ZM720.203 354L717.235 346.426H718.957L721.239 352.6H720.609L722.891 346.426H724.627L721.645 354H720.203Z" fill="#525252"/>
<path d="M759.765 354V343.57H763.181C764.263 343.57 765.201 343.789 765.995 344.228C766.797 344.657 767.418 345.264 767.857 346.048C768.295 346.832 768.515 347.742 768.515 348.778C768.515 349.805 768.295 350.715 767.857 351.508C767.418 352.292 766.797 352.903 765.995 353.342C765.201 353.781 764.263 354 763.181 354H759.765ZM761.417 352.53H763.209C763.946 352.53 764.585 352.376 765.127 352.068C765.677 351.76 766.102 351.326 766.401 350.766C766.699 350.206 766.849 349.543 766.849 348.778C766.849 348.013 766.695 347.355 766.387 346.804C766.088 346.244 765.668 345.81 765.127 345.502C764.585 345.194 763.946 345.04 763.209 345.04H761.417V352.53ZM773.543 354.168C772.787 354.168 772.115 353.995 771.527 353.65C770.949 353.295 770.496 352.819 770.169 352.222C769.843 351.615 769.679 350.939 769.679 350.192C769.679 349.427 769.843 348.75 770.169 348.162C770.505 347.574 770.953 347.112 771.513 346.776C772.073 346.431 772.708 346.258 773.417 346.258C773.987 346.258 774.495 346.356 774.943 346.552C775.391 346.748 775.769 347.019 776.077 347.364C776.385 347.7 776.619 348.087 776.777 348.526C776.945 348.965 777.029 349.431 777.029 349.926C777.029 350.047 777.025 350.173 777.015 350.304C777.006 350.435 776.987 350.556 776.959 350.668H770.925V349.408H776.063L775.307 349.982C775.401 349.525 775.368 349.119 775.209 348.764C775.06 348.4 774.827 348.115 774.509 347.91C774.201 347.695 773.837 347.588 773.417 347.588C772.997 347.588 772.624 347.695 772.297 347.91C771.971 348.115 771.719 348.414 771.541 348.806C771.364 349.189 771.294 349.655 771.331 350.206C771.285 350.719 771.355 351.167 771.541 351.55C771.737 351.933 772.008 352.231 772.353 352.446C772.708 352.661 773.109 352.768 773.557 352.768C774.015 352.768 774.402 352.665 774.719 352.46C775.046 352.255 775.303 351.989 775.489 351.662L776.777 352.292C776.628 352.647 776.395 352.969 776.077 353.258C775.769 353.538 775.396 353.762 774.957 353.93C774.528 354.089 774.057 354.168 773.543 354.168ZM781.373 354.168C780.599 354.168 779.917 353.977 779.329 353.594C778.751 353.211 778.345 352.698 778.111 352.054L779.329 351.48C779.535 351.909 779.815 352.25 780.169 352.502C780.533 352.754 780.935 352.88 781.373 352.88C781.747 352.88 782.05 352.796 782.283 352.628C782.517 352.46 782.633 352.231 782.633 351.942C782.633 351.755 782.582 351.606 782.479 351.494C782.377 351.373 782.246 351.275 782.087 351.2C781.938 351.125 781.784 351.069 781.625 351.032L780.435 350.696C779.782 350.509 779.292 350.229 778.965 349.856C778.648 349.473 778.489 349.03 778.489 348.526C778.489 348.069 778.606 347.672 778.839 347.336C779.073 346.991 779.395 346.725 779.805 346.538C780.216 346.351 780.678 346.258 781.191 346.258C781.882 346.258 782.498 346.431 783.039 346.776C783.581 347.112 783.963 347.583 784.187 348.19L782.969 348.764C782.82 348.4 782.582 348.111 782.255 347.896C781.938 347.681 781.579 347.574 781.177 347.574C780.832 347.574 780.557 347.658 780.351 347.826C780.146 347.985 780.043 348.195 780.043 348.456C780.043 348.633 780.09 348.783 780.183 348.904C780.277 349.016 780.398 349.109 780.547 349.184C780.697 349.249 780.851 349.305 781.009 349.352L782.241 349.716C782.867 349.893 783.347 350.173 783.683 350.556C784.019 350.929 784.187 351.377 784.187 351.9C784.187 352.348 784.066 352.745 783.823 353.09C783.59 353.426 783.263 353.692 782.843 353.888C782.423 354.075 781.933 354.168 781.373 354.168Z" fill="#525252"/>
</g>
<g opacity="0.56">
<path d="M24.588 83.144C24.116 83.144 23.672 83.06 23.256 82.892C22.84 82.716 22.48 82.472 22.176 82.16C21.872 81.848 21.656 81.472 21.528 81.032L22.716 80.576C22.868 81 23.116 81.324 23.46 81.548C23.804 81.772 24.18 81.884 24.588 81.884C24.924 81.884 25.22 81.808 25.476 81.656C25.732 81.504 25.932 81.296 26.076 81.032C26.228 80.768 26.304 80.468 26.304 80.132C26.304 79.788 26.228 79.488 26.076 79.232C25.932 78.968 25.732 78.764 25.476 78.62C25.22 78.468 24.924 78.392 24.588 78.392C24.252 78.392 23.944 78.468 23.664 78.62C23.384 78.772 23.18 78.976 23.052 79.232L21.912 78.98L22.608 74.06H27.372V75.26H23.16L23.7 74.672L23.184 78.44L22.74 78.14C22.98 77.804 23.272 77.56 23.616 77.408C23.96 77.256 24.352 77.18 24.792 77.18C25.376 77.18 25.884 77.312 26.316 77.576C26.756 77.832 27.096 78.184 27.336 78.632C27.584 79.072 27.708 79.572 27.708 80.132C27.708 80.7 27.572 81.212 27.3 81.668C27.028 82.124 26.656 82.484 26.184 82.748C25.72 83.012 25.188 83.144 24.588 83.144ZM32.6908 83.144C31.9788 83.144 31.3548 82.952 30.8188 82.568C30.2828 82.176 29.8628 81.636 29.5588 80.948C29.2628 80.252 29.1148 79.444 29.1148 78.524C29.1148 77.596 29.2628 76.788 29.5588 76.1C29.8628 75.412 30.2788 74.876 30.8068 74.492C31.3428 74.108 31.9668 73.916 32.6788 73.916C33.3908 73.916 34.0108 74.108 34.5388 74.492C35.0748 74.876 35.4908 75.416 35.7868 76.112C36.0908 76.8 36.2428 77.604 36.2428 78.524C36.2428 79.444 36.0948 80.252 35.7988 80.948C35.5028 81.636 35.0868 82.176 34.5508 82.568C34.0228 82.952 33.4028 83.144 32.6908 83.144ZM32.6908 81.848C33.1308 81.848 33.5108 81.712 33.8308 81.44C34.1508 81.168 34.3988 80.784 34.5748 80.288C34.7508 79.792 34.8388 79.204 34.8388 78.524C34.8388 77.844 34.7508 77.256 34.5748 76.76C34.3988 76.264 34.1508 75.88 33.8308 75.608C33.5108 75.336 33.1268 75.2 32.6788 75.2C32.2388 75.2 31.8588 75.336 31.5388 75.608C31.2188 75.88 30.9708 76.264 30.7948 76.76C30.6188 77.256 30.5308 77.844 30.5308 78.524C30.5308 79.196 30.6188 79.784 30.7948 80.288C30.9708 80.784 31.2188 81.168 31.5388 81.44C31.8668 81.712 32.2508 81.848 32.6908 81.848ZM38.3647 83V81.44H39.7447V83H38.3647ZM45.4408 83.144C44.7288 83.144 44.1048 82.952 43.5688 82.568C43.0328 82.176 42.6128 81.636 42.3088 80.948C42.0128 80.252 41.8648 79.444 41.8648 78.524C41.8648 77.596 42.0128 76.788 42.3088 76.1C42.6128 75.412 43.0288 74.876 43.5568 74.492C44.0928 74.108 44.7168 73.916 45.4288 73.916C46.1408 73.916 46.7608 74.108 47.2888 74.492C47.8248 74.876 48.2408 75.416 48.5368 76.112C48.8408 76.8 48.9928 77.604 48.9928 78.524C48.9928 79.444 48.8448 80.252 48.5488 80.948C48.2528 81.636 47.8368 82.176 47.3008 82.568C46.7728 82.952 46.1528 83.144 45.4408 83.144ZM45.4408 81.848C45.8808 81.848 46.2608 81.712 46.5808 81.44C46.9008 81.168 47.1488 80.784 47.3248 80.288C47.5008 79.792 47.5888 79.204 47.5888 78.524C47.5888 77.844 47.5008 77.256 47.3248 76.76C47.1488 76.264 46.9008 75.88 46.5808 75.608C46.2608 75.336 45.8768 75.2 45.4288 75.2C44.9888 75.2 44.6088 75.336 44.2888 75.608C43.9688 75.88 43.7208 76.264 43.5448 76.76C43.3688 77.256 43.2808 77.844 43.2808 78.524C43.2808 79.196 43.3688 79.784 43.5448 80.288C43.7208 80.784 43.9688 81.168 44.2888 81.44C44.6168 81.712 45.0008 81.848 45.4408 81.848ZM54.0307 83.144C53.3187 83.144 52.6947 82.952 52.1587 82.568C51.6227 82.176 51.2027 81.636 50.8987 80.948C50.6027 80.252 50.4547 79.444 50.4547 78.524C50.4547 77.596 50.6027 76.788 50.8987 76.1C51.2027 75.412 51.6187 74.876 52.1467 74.492C52.6827 74.108 53.3067 73.916 54.0187 73.916C54.7307 73.916 55.3507 74.108 55.8787 74.492C56.4147 74.876 56.8307 75.416 57.1267 76.112C57.4307 76.8 57.5827 77.604 57.5827 78.524C57.5827 79.444 57.4347 80.252 57.1387 80.948C56.8427 81.636 56.4267 82.176 55.8907 82.568C55.3627 82.952 54.7427 83.144 54.0307 83.144ZM54.0307 81.848C54.4707 81.848 54.8507 81.712 55.1707 81.44C55.4907 81.168 55.7387 80.784 55.9147 80.288C56.0907 79.792 56.1787 79.204 56.1787 78.524C56.1787 77.844 56.0907 77.256 55.9147 76.76C55.7387 76.264 55.4907 75.88 55.1707 75.608C54.8507 75.336 54.4667 75.2 54.0187 75.2C53.5787 75.2 53.1987 75.336 52.8787 75.608C52.5587 75.88 52.3107 76.264 52.1347 76.76C51.9587 77.256 51.8707 77.844 51.8707 78.524C51.8707 79.196 51.9587 79.784 52.1347 80.288C52.3107 80.784 52.5587 81.168 52.8787 81.44C53.2067 81.712 53.5907 81.848 54.0307 81.848ZM62.6205 83.144C61.9085 83.144 61.2845 82.952 60.7485 82.568C60.2125 82.176 59.7925 81.636 59.4885 80.948C59.1925 80.252 59.0445 79.444 59.0445 78.524C59.0445 77.596 59.1925 76.788 59.4885 76.1C59.7925 75.412 60.2085 74.876 60.7365 74.492C61.2725 74.108 61.8965 73.916 62.6085 73.916C63.3205 73.916 63.9405 74.108 64.4685 74.492C65.0045 74.876 65.4205 75.416 65.7165 76.112C66.0205 76.8 66.1725 77.604 66.1725 78.524C66.1725 79.444 66.0245 80.252 65.7285 80.948C65.4325 81.636 65.0165 82.176 64.4805 82.568C63.9525 82.952 63.3325 83.144 62.6205 83.144ZM62.6205 81.848C63.0605 81.848 63.4405 81.712 63.7605 81.44C64.0805 81.168 64.3285 80.784 64.5045 80.288C64.6805 79.792 64.7685 79.204 64.7685 78.524C64.7685 77.844 64.6805 77.256 64.5045 76.76C64.3285 76.264 64.0805 75.88 63.7605 75.608C63.4405 75.336 63.0565 75.2 62.6085 75.2C62.1685 75.2 61.7885 75.336 61.4685 75.608C61.1485 75.88 60.9005 76.264 60.7245 76.76C60.5485 77.256 60.4605 77.844 60.4605 78.524C60.4605 79.196 60.5485 79.784 60.7245 80.288C60.9005 80.784 61.1485 81.168 61.4685 81.44C61.7965 81.712 62.1805 81.848 62.6205 81.848Z" fill="#525252"/>
<path d="M25.728 122.833V120.817H21.468V119.641L25.668 113.893H27.072V119.641H28.308V120.817H27.072V122.833H25.728ZM22.512 120.157L22.284 119.641H25.728V115.021L26.112 115.141L22.512 120.157ZM33.0658 122.977C32.3538 122.977 31.7298 122.785 31.1938 122.401C30.6578 122.009 30.2378 121.469 29.9338 120.781C29.6378 120.085 29.4898 119.277 29.4898 118.357C29.4898 117.429 29.6378 116.621 29.9338 115.933C30.2378 115.245 30.6538 114.709 31.1818 114.325C31.7178 113.941 32.3418 113.749 33.0538 113.749C33.7658 113.749 34.3858 113.941 34.9138 114.325C35.4498 114.709 35.8658 115.249 36.1618 115.945C36.4658 116.633 36.6178 117.437 36.6178 118.357C36.6178 119.277 36.4698 120.085 36.1738 120.781C35.8778 121.469 35.4618 122.009 34.9258 122.401C34.3978 122.785 33.7778 122.977 33.0658 122.977ZM33.0658 121.681C33.5058 121.681 33.8858 121.545 34.2058 121.273C34.5258 121.001 34.7738 120.617 34.9498 120.121C35.1258 119.625 35.2138 119.037 35.2138 118.357C35.2138 117.677 35.1258 117.089 34.9498 116.593C34.7738 116.097 34.5258 115.713 34.2058 115.441C33.8858 115.169 33.5018 115.033 33.0538 115.033C32.6138 115.033 32.2338 115.169 31.9138 115.441C31.5938 115.713 31.3458 116.097 31.1698 116.593C30.9938 117.089 30.9058 117.677 30.9058 118.357C30.9058 119.029 30.9938 119.617 31.1698 120.121C31.3458 120.617 31.5938 121.001 31.9138 121.273C32.2418 121.545 32.6258 121.681 33.0658 121.681ZM38.7397 122.833V121.273H40.1197V122.833H38.7397ZM45.8158 122.977C45.1038 122.977 44.4798 122.785 43.9438 122.401C43.4078 122.009 42.9878 121.469 42.6838 120.781C42.3878 120.085 42.2398 119.277 42.2398 118.357C42.2398 117.429 42.3878 116.621 42.6838 115.933C42.9878 115.245 43.4038 114.709 43.9318 114.325C44.4678 113.941 45.0918 113.749 45.8038 113.749C46.5158 113.749 47.1358 113.941 47.6638 114.325C48.1998 114.709 48.6158 115.249 48.9118 115.945C49.2158 116.633 49.3678 117.437 49.3678 118.357C49.3678 119.277 49.2198 120.085 48.9238 120.781C48.6278 121.469 48.2118 122.009 47.6758 122.401C47.1478 122.785 46.5278 122.977 45.8158 122.977ZM45.8158 121.681C46.2558 121.681 46.6358 121.545 46.9558 121.273C47.2758 121.001 47.5238 120.617 47.6998 120.121C47.8758 119.625 47.9638 119.037 47.9638 118.357C47.9638 117.677 47.8758 117.089 47.6998 116.593C47.5238 116.097 47.2758 115.713 46.9558 115.441C46.6358 115.169 46.2518 115.033 45.8038 115.033C45.3638 115.033 44.9838 115.169 44.6638 115.441C44.3438 115.713 44.0958 116.097 43.9198 116.593C43.7438 117.089 43.6558 117.677 43.6558 118.357C43.6558 119.029 43.7438 119.617 43.9198 120.121C44.0958 120.617 44.3438 121.001 44.6638 121.273C44.9918 121.545 45.3758 121.681 45.8158 121.681ZM54.4057 122.977C53.6937 122.977 53.0697 122.785 52.5337 122.401C51.9977 122.009 51.5777 121.469 51.2737 120.781C50.9777 120.085 50.8297 119.277 50.8297 118.357C50.8297 117.429 50.9777 116.621 51.2737 115.933C51.5777 115.245 51.9937 114.709 52.5217 114.325C53.0577 113.941 53.6817 113.749 54.3937 113.749C55.1057 113.749 55.7257 113.941 56.2537 114.325C56.7897 114.709 57.2057 115.249 57.5017 115.945C57.8057 116.633 57.9577 117.437 57.9577 118.357C57.9577 119.277 57.8097 120.085 57.5137 120.781C57.2177 121.469 56.8017 122.009 56.2657 122.401C55.7377 122.785 55.1177 122.977 54.4057 122.977ZM54.4057 121.681C54.8457 121.681 55.2257 121.545 55.5457 121.273C55.8657 121.001 56.1137 120.617 56.2897 120.121C56.4657 119.625 56.5537 119.037 56.5537 118.357C56.5537 117.677 56.4657 117.089 56.2897 116.593C56.1137 116.097 55.8657 115.713 55.5457 115.441C55.2257 115.169 54.8417 115.033 54.3937 115.033C53.9537 115.033 53.5737 115.169 53.2537 115.441C52.9337 115.713 52.6857 116.097 52.5097 116.593C52.3337 117.089 52.2457 117.677 52.2457 118.357C52.2457 119.029 52.3337 119.617 52.5097 120.121C52.6857 120.617 52.9337 121.001 53.2537 121.273C53.5817 121.545 53.9657 121.681 54.4057 121.681ZM62.9955 122.977C62.2835 122.977 61.6595 122.785 61.1235 122.401C60.5875 122.009 60.1675 121.469 59.8635 120.781C59.5675 120.085 59.4195 119.277 59.4195 118.357C59.4195 117.429 59.5675 116.621 59.8635 115.933C60.1675 115.245 60.5835 114.709 61.1115 114.325C61.6475 113.941 62.2715 113.749 62.9835 113.749C63.6955 113.749 64.3155 113.941 64.8435 114.325C65.3795 114.709 65.7955 115.249 66.0915 115.945C66.3955 116.633 66.5475 117.437 66.5475 118.357C66.5475 119.277 66.3995 120.085 66.1035 120.781C65.8075 121.469 65.3915 122.009 64.8555 122.401C64.3275 122.785 63.7075 122.977 62.9955 122.977ZM62.9955 121.681C63.4355 121.681 63.8155 121.545 64.1355 121.273C64.4555 121.001 64.7035 120.617 64.8795 120.121C65.0555 119.625 65.1435 119.037 65.1435 118.357C65.1435 117.677 65.0555 117.089 64.8795 116.593C64.7035 116.097 64.4555 115.713 64.1355 115.441C63.8155 115.169 63.4315 115.033 62.9835 115.033C62.5435 115.033 62.1635 115.169 61.8435 115.441C61.5235 115.713 61.2755 116.097 61.0995 116.593C60.9235 117.089 60.8355 117.677 60.8355 118.357C60.8355 119.029 60.9235 119.617 61.0995 120.121C61.2755 120.617 61.5235 121.001 61.8435 121.273C62.1715 121.545 62.5555 121.681 62.9955 121.681Z" fill="#525252"/>
<path d="M24.516 162.811C24.036 162.811 23.584 162.723 23.16 162.547C22.744 162.371 22.384 162.123 22.08 161.803C21.784 161.483 21.572 161.107 21.444 160.675L22.644 160.219C22.804 160.643 23.048 160.971 23.376 161.203C23.704 161.435 24.084 161.551 24.516 161.551C24.868 161.551 25.172 161.483 25.428 161.347C25.692 161.211 25.896 161.019 26.04 160.771C26.192 160.523 26.268 160.223 26.268 159.871C26.268 159.527 26.192 159.231 26.04 158.983C25.896 158.735 25.692 158.547 25.428 158.419C25.172 158.291 24.868 158.227 24.516 158.227C24.372 158.227 24.224 158.239 24.072 158.263C23.928 158.287 23.8 158.319 23.688 158.359L23.376 157.699L25.728 154.927H21.924V153.727H27.312V154.867L25.008 157.627L24.972 157.171C25.508 157.179 25.98 157.299 26.388 157.531C26.796 157.755 27.112 158.067 27.336 158.467C27.568 158.859 27.684 159.315 27.684 159.835C27.684 160.395 27.548 160.903 27.276 161.359C27.004 161.807 26.628 162.163 26.148 162.427C25.676 162.683 25.132 162.811 24.516 162.811ZM32.6439 162.811C31.9319 162.811 31.3079 162.619 30.7719 162.235C30.2359 161.843 29.8159 161.303 29.5119 160.615C29.2159 159.919 29.0679 159.111 29.0679 158.191C29.0679 157.263 29.2159 156.455 29.5119 155.767C29.8159 155.079 30.2319 154.543 30.7599 154.159C31.2959 153.775 31.9199 153.583 32.6319 153.583C33.3439 153.583 33.9639 153.775 34.4919 154.159C35.0279 154.543 35.4439 155.083 35.7399 155.779C36.0439 156.467 36.1959 157.271 36.1959 158.191C36.1959 159.111 36.0479 159.919 35.7519 160.615C35.4559 161.303 35.0399 161.843 34.5039 162.235C33.9759 162.619 33.3559 162.811 32.6439 162.811ZM32.6439 161.515C33.0839 161.515 33.4639 161.379 33.7839 161.107C34.1039 160.835 34.3519 160.451 34.5279 159.955C34.7039 159.459 34.7919 158.871 34.7919 158.191C34.7919 157.511 34.7039 156.923 34.5279 156.427C34.3519 155.931 34.1039 155.547 33.7839 155.275C33.4639 155.003 33.0799 154.867 32.6319 154.867C32.1919 154.867 31.8119 155.003 31.4919 155.275C31.1719 155.547 30.9239 155.931 30.7479 156.427C30.5719 156.923 30.4839 157.511 30.4839 158.191C30.4839 158.863 30.5719 159.451 30.7479 159.955C30.9239 160.451 31.1719 160.835 31.4919 161.107C31.8199 161.379 32.2039 161.515 32.6439 161.515ZM38.3178 162.667V161.107H39.6978V162.667H38.3178ZM45.3939 162.811C44.6819 162.811 44.0579 162.619 43.5219 162.235C42.9859 161.843 42.5659 161.303 42.2619 160.615C41.9659 159.919 41.8179 159.111 41.8179 158.191C41.8179 157.263 41.9659 156.455 42.2619 155.767C42.5659 155.079 42.9819 154.543 43.5099 154.159C44.0459 153.775 44.6699 153.583 45.3819 153.583C46.0939 153.583 46.7139 153.775 47.2419 154.159C47.7779 154.543 48.1939 155.083 48.4899 155.779C48.7939 156.467 48.9459 157.271 48.9459 158.191C48.9459 159.111 48.7979 159.919 48.5019 160.615C48.2059 161.303 47.7899 161.843 47.2539 162.235C46.7259 162.619 46.1059 162.811 45.3939 162.811ZM45.3939 161.515C45.8339 161.515 46.2139 161.379 46.5339 161.107C46.8539 160.835 47.1019 160.451 47.2779 159.955C47.4539 159.459 47.5419 158.871 47.5419 158.191C47.5419 157.511 47.4539 156.923 47.2779 156.427C47.1019 155.931 46.8539 155.547 46.5339 155.275C46.2139 155.003 45.8299 154.867 45.3819 154.867C44.9419 154.867 44.5619 155.003 44.2419 155.275C43.9219 155.547 43.6739 155.931 43.4979 156.427C43.3219 156.923 43.2339 157.511 43.2339 158.191C43.2339 158.863 43.3219 159.451 43.4979 159.955C43.6739 160.451 43.9219 160.835 44.2419 161.107C44.5699 161.379 44.9539 161.515 45.3939 161.515ZM53.9838 162.811C53.2718 162.811 52.6478 162.619 52.1118 162.235C51.5758 161.843 51.1558 161.303 50.8518 160.615C50.5558 159.919 50.4078 159.111 50.4078 158.191C50.4078 157.263 50.5558 156.455 50.8518 155.767C51.1558 155.079 51.5718 154.543 52.0998 154.159C52.6358 153.775 53.2598 153.583 53.9718 153.583C54.6838 153.583 55.3038 153.775 55.8318 154.159C56.3678 154.543 56.7838 155.083 57.0798 155.779C57.3838 156.467 57.5358 157.271 57.5358 158.191C57.5358 159.111 57.3878 159.919 57.0918 160.615C56.7958 161.303 56.3798 161.843 55.8438 162.235C55.3158 162.619 54.6958 162.811 53.9838 162.811ZM53.9838 161.515C54.4238 161.515 54.8038 161.379 55.1238 161.107C55.4438 160.835 55.6918 160.451 55.8678 159.955C56.0438 159.459 56.1318 158.871 56.1318 158.191C56.1318 157.511 56.0438 156.923 55.8678 156.427C55.6918 155.931 55.4438 155.547 55.1238 155.275C54.8038 155.003 54.4198 154.867 53.9718 154.867C53.5318 154.867 53.1518 155.003 52.8318 155.275C52.5118 155.547 52.2638 155.931 52.0878 156.427C51.9118 156.923 51.8238 157.511 51.8238 158.191C51.8238 158.863 51.9118 159.451 52.0878 159.955C52.2638 160.451 52.5118 160.835 52.8318 161.107C53.1598 161.379 53.5438 161.515 53.9838 161.515ZM62.5736 162.811C61.8616 162.811 61.2376 162.619 60.7016 162.235C60.1656 161.843 59.7456 161.303 59.4416 160.615C59.1456 159.919 58.9976 159.111 58.9976 158.191C58.9976 157.263 59.1456 156.455 59.4416 155.767C59.7456 155.079 60.1616 154.543 60.6896 154.159C61.2256 153.775 61.8496 153.583 62.5616 153.583C63.2736 153.583 63.8936 153.775 64.4216 154.159C64.9576 154.543 65.3736 155.083 65.6696 155.779C65.9736 156.467 66.1256 157.271 66.1256 158.191C66.1256 159.111 65.9776 159.919 65.6816 160.615C65.3856 161.303 64.9696 161.843 64.4336 162.235C63.9056 162.619 63.2856 162.811 62.5736 162.811ZM62.5736 161.515C63.0136 161.515 63.3936 161.379 63.7136 161.107C64.0336 160.835 64.2816 160.451 64.4576 159.955C64.6336 159.459 64.7216 158.871 64.7216 158.191C64.7216 157.511 64.6336 156.923 64.4576 156.427C64.2816 155.931 64.0336 155.547 63.7136 155.275C63.3936 155.003 63.0096 154.867 62.5616 154.867C62.1216 154.867 61.7416 155.003 61.4216 155.275C61.1016 155.547 60.8536 155.931 60.6776 156.427C60.5016 156.923 60.4136 157.511 60.4136 158.191C60.4136 158.863 60.5016 159.451 60.6776 159.955C60.8536 160.451 61.1016 160.835 61.4216 161.107C61.7496 161.379 62.1336 161.515 62.5736 161.515Z" fill="#525252"/>
<path d="M21.6 202.5V201.48L24.048 198.864C24.528 198.352 24.904 197.94 25.176 197.628C25.456 197.308 25.656 197.028 25.776 196.788C25.904 196.548 25.968 196.296 25.968 196.032C25.968 195.6 25.836 195.268 25.572 195.036C25.308 194.796 24.968 194.676 24.552 194.676C24.12 194.676 23.748 194.8 23.436 195.048C23.124 195.288 22.908 195.64 22.788 196.104L21.54 195.744C21.636 195.272 21.828 194.864 22.116 194.52C22.404 194.168 22.756 193.896 23.172 193.704C23.596 193.512 24.052 193.416 24.54 193.416C25.108 193.416 25.604 193.524 26.028 193.74C26.452 193.948 26.78 194.24 27.012 194.616C27.252 194.992 27.372 195.428 27.372 195.924C27.372 196.252 27.308 196.572 27.18 196.884C27.06 197.188 26.872 197.512 26.616 197.856C26.36 198.192 26.032 198.572 25.632 198.996L23.472 201.3H27.54V202.5H21.6ZM32.4799 202.644C31.7679 202.644 31.1439 202.452 30.6079 202.068C30.0719 201.676 29.6519 201.136 29.3479 200.448C29.0519 199.752 28.9039 198.944 28.9039 198.024C28.9039 197.096 29.0519 196.288 29.3479 195.6C29.6519 194.912 30.0679 194.376 30.5959 193.992C31.1319 193.608 31.7559 193.416 32.4679 193.416C33.1799 193.416 33.7999 193.608 34.3279 193.992C34.8639 194.376 35.2799 194.916 35.5759 195.612C35.8799 196.3 36.0319 197.104 36.0319 198.024C36.0319 198.944 35.8839 199.752 35.5879 200.448C35.2919 201.136 34.8759 201.676 34.3399 202.068C33.8119 202.452 33.1919 202.644 32.4799 202.644ZM32.4799 201.348C32.9199 201.348 33.2999 201.212 33.6199 200.94C33.9399 200.668 34.1879 200.284 34.3639 199.788C34.5399 199.292 34.6279 198.704 34.6279 198.024C34.6279 197.344 34.5399 196.756 34.3639 196.26C34.1879 195.764 33.9399 195.38 33.6199 195.108C33.2999 194.836 32.9159 194.7 32.4679 194.7C32.0279 194.7 31.6479 194.836 31.3279 195.108C31.0079 195.38 30.7599 195.764 30.5839 196.26C30.4079 196.756 30.3199 197.344 30.3199 198.024C30.3199 198.696 30.4079 199.284 30.5839 199.788C30.7599 200.284 31.0079 200.668 31.3279 200.94C31.6559 201.212 32.0399 201.348 32.4799 201.348ZM38.1537 202.5V200.94H39.5337V202.5H38.1537ZM45.2299 202.644C44.5179 202.644 43.8939 202.452 43.3579 202.068C42.8219 201.676 42.4019 201.136 42.0979 200.448C41.8019 199.752 41.6539 198.944 41.6539 198.024C41.6539 197.096 41.8019 196.288 42.0979 195.6C42.4019 194.912 42.8179 194.376 43.3459 193.992C43.8819 193.608 44.5059 193.416 45.2179 193.416C45.9299 193.416 46.5499 193.608 47.0779 193.992C47.6139 194.376 48.0299 194.916 48.3259 195.612C48.6299 196.3 48.7819 197.104 48.7819 198.024C48.7819 198.944 48.6339 199.752 48.3379 200.448C48.0419 201.136 47.6259 201.676 47.0899 202.068C46.5619 202.452 45.9419 202.644 45.2299 202.644ZM45.2299 201.348C45.6699 201.348 46.0499 201.212 46.3699 200.94C46.6899 200.668 46.9379 200.284 47.1139 199.788C47.2899 199.292 47.3779 198.704 47.3779 198.024C47.3779 197.344 47.2899 196.756 47.1139 196.26C46.9379 195.764 46.6899 195.38 46.3699 195.108C46.0499 194.836 45.6659 194.7 45.2179 194.7C44.7779 194.7 44.3979 194.836 44.0779 195.108C43.7579 195.38 43.5099 195.764 43.3339 196.26C43.1579 196.756 43.0699 197.344 43.0699 198.024C43.0699 198.696 43.1579 199.284 43.3339 199.788C43.5099 200.284 43.7579 200.668 44.0779 200.94C44.4059 201.212 44.7899 201.348 45.2299 201.348ZM53.8197 202.644C53.1077 202.644 52.4837 202.452 51.9477 202.068C51.4117 201.676 50.9917 201.136 50.6877 200.448C50.3917 199.752 50.2437 198.944 50.2437 198.024C50.2437 197.096 50.3917 196.288 50.6877 195.6C50.9917 194.912 51.4077 194.376 51.9357 193.992C52.4717 193.608 53.0957 193.416 53.8077 193.416C54.5197 193.416 55.1397 193.608 55.6677 193.992C56.2037 194.376 56.6197 194.916 56.9157 195.612C57.2197 196.3 57.3717 197.104 57.3717 198.024C57.3717 198.944 57.2237 199.752 56.9277 200.448C56.6317 201.136 56.2157 201.676 55.6797 202.068C55.1517 202.452 54.5317 202.644 53.8197 202.644ZM53.8197 201.348C54.2597 201.348 54.6397 201.212 54.9597 200.94C55.2797 200.668 55.5277 200.284 55.7037 199.788C55.8797 199.292 55.9677 198.704 55.9677 198.024C55.9677 197.344 55.8797 196.756 55.7037 196.26C55.5277 195.764 55.2797 195.38 54.9597 195.108C54.6397 194.836 54.2557 194.7 53.8077 194.7C53.3677 194.7 52.9877 194.836 52.6677 195.108C52.3477 195.38 52.0997 195.764 51.9237 196.26C51.7477 196.756 51.6597 197.344 51.6597 198.024C51.6597 198.696 51.7477 199.284 51.9237 199.788C52.0997 200.284 52.3477 200.668 52.6677 200.94C52.9957 201.212 53.3797 201.348 53.8197 201.348ZM62.4096 202.644C61.6976 202.644 61.0736 202.452 60.5376 202.068C60.0016 201.676 59.5816 201.136 59.2776 200.448C58.9816 199.752 58.8336 198.944 58.8336 198.024C58.8336 197.096 58.9816 196.288 59.2776 195.6C59.5816 194.912 59.9976 194.376 60.5256 193.992C61.0616 193.608 61.6856 193.416 62.3976 193.416C63.1096 193.416 63.7296 193.608 64.2576 193.992C64.7936 194.376 65.2096 194.916 65.5056 195.612C65.8096 196.3 65.9616 197.104 65.9616 198.024C65.9616 198.944 65.8136 199.752 65.5176 200.448C65.2216 201.136 64.8056 201.676 64.2696 202.068C63.7416 202.452 63.1216 202.644 62.4096 202.644ZM62.4096 201.348C62.8496 201.348 63.2296 201.212 63.5496 200.94C63.8696 200.668 64.1176 200.284 64.2936 199.788C64.4696 199.292 64.5576 198.704 64.5576 198.024C64.5576 197.344 64.4696 196.756 64.2936 196.26C64.1176 195.764 63.8696 195.38 63.5496 195.108C63.2296 194.836 62.8456 194.7 62.3976 194.7C61.9576 194.7 61.5776 194.836 61.2576 195.108C60.9376 195.38 60.6896 195.764 60.5136 196.26C60.3376 196.756 60.2496 197.344 60.2496 198.024C60.2496 198.696 60.3376 199.284 60.5136 199.788C60.6896 200.284 60.9376 200.668 61.2576 200.94C61.5856 201.212 61.9696 201.348 62.4096 201.348Z" fill="#525252"/>
<path d="M23.112 242.333V234.593H21.396V233.393H24.516V242.333H23.112ZM30.0072 242.477C29.2952 242.477 28.6712 242.285 28.1352 241.901C27.5992 241.509 27.1792 240.969 26.8752 240.281C26.5792 239.585 26.4312 238.777 26.4312 237.857C26.4312 236.929 26.5792 236.121 26.8752 235.433C27.1792 234.745 27.5952 234.209 28.1232 233.825C28.6592 233.441 29.2832 233.249 29.9952 233.249C30.7072 233.249 31.3272 233.441 31.8552 233.825C32.3912 234.209 32.8072 234.749 33.1032 235.445C33.4072 236.133 33.5592 236.937 33.5592 237.857C33.5592 238.777 33.4112 239.585 33.1152 240.281C32.8192 240.969 32.4032 241.509 31.8672 241.901C31.3392 242.285 30.7192 242.477 30.0072 242.477ZM30.0072 241.181C30.4472 241.181 30.8272 241.045 31.1472 240.773C31.4672 240.501 31.7152 240.117 31.8912 239.621C32.0672 239.125 32.1552 238.537 32.1552 237.857C32.1552 237.177 32.0672 236.589 31.8912 236.093C31.7152 235.597 31.4672 235.213 31.1472 234.941C30.8272 234.669 30.4432 234.533 29.9952 234.533C29.5552 234.533 29.1752 234.669 28.8552 234.941C28.5352 235.213 28.2872 235.597 28.1112 236.093C27.9352 236.589 27.8472 237.177 27.8472 237.857C27.8472 238.529 27.9352 239.117 28.1112 239.621C28.2872 240.117 28.5352 240.501 28.8552 240.773C29.1832 241.045 29.5672 241.181 30.0072 241.181ZM35.6811 242.333V240.773H37.0611V242.333H35.6811ZM42.7572 242.477C42.0452 242.477 41.4212 242.285 40.8852 241.901C40.3492 241.509 39.9292 240.969 39.6252 240.281C39.3292 239.585 39.1812 238.777 39.1812 237.857C39.1812 236.929 39.3292 236.121 39.6252 235.433C39.9292 234.745 40.3452 234.209 40.8732 233.825C41.4092 233.441 42.0332 233.249 42.7452 233.249C43.4572 233.249 44.0772 233.441 44.6052 233.825C45.1412 234.209 45.5572 234.749 45.8532 235.445C46.1572 236.133 46.3092 236.937 46.3092 237.857C46.3092 238.777 46.1612 239.585 45.8652 240.281C45.5692 240.969 45.1532 241.509 44.6172 241.901C44.0892 242.285 43.4692 242.477 42.7572 242.477ZM42.7572 241.181C43.1972 241.181 43.5772 241.045 43.8972 240.773C44.2172 240.501 44.4652 240.117 44.6412 239.621C44.8172 239.125 44.9052 238.537 44.9052 237.857C44.9052 237.177 44.8172 236.589 44.6412 236.093C44.4652 235.597 44.2172 235.213 43.8972 234.941C43.5772 234.669 43.1932 234.533 42.7452 234.533C42.3052 234.533 41.9252 234.669 41.6052 234.941C41.2852 235.213 41.0372 235.597 40.8612 236.093C40.6852 236.589 40.5972 237.177 40.5972 237.857C40.5972 238.529 40.6852 239.117 40.8612 239.621C41.0372 240.117 41.2852 240.501 41.6052 240.773C41.9332 241.045 42.3172 241.181 42.7572 241.181ZM51.3471 242.477C50.6351 242.477 50.0111 242.285 49.4751 241.901C48.9391 241.509 48.5191 240.969 48.2151 240.281C47.9191 239.585 47.7711 238.777 47.7711 237.857C47.7711 236.929 47.9191 236.121 48.2151 235.433C48.5191 234.745 48.9351 234.209 49.4631 233.825C49.9991 233.441 50.6231 233.249 51.3351 233.249C52.0471 233.249 52.6671 233.441 53.1951 233.825C53.7311 234.209 54.1471 234.749 54.4431 235.445C54.7471 236.133 54.8991 236.937 54.8991 237.857C54.8991 238.777 54.7511 239.585 54.4551 240.281C54.1591 240.969 53.7431 241.509 53.2071 241.901C52.6791 242.285 52.0591 242.477 51.3471 242.477ZM51.3471 241.181C51.7871 241.181 52.1671 241.045 52.4871 240.773C52.8071 240.501 53.0551 240.117 53.2311 239.621C53.4071 239.125 53.4951 238.537 53.4951 237.857C53.4951 237.177 53.4071 236.589 53.2311 236.093C53.0551 235.597 52.8071 235.213 52.4871 234.941C52.1671 234.669 51.7831 234.533 51.3351 234.533C50.8951 234.533 50.5151 234.669 50.1951 234.941C49.8751 235.213 49.6271 235.597 49.4511 236.093C49.2751 236.589 49.1871 237.177 49.1871 237.857C49.1871 238.529 49.2751 239.117 49.4511 239.621C49.6271 240.117 49.8751 240.501 50.1951 240.773C50.5231 241.045 50.9071 241.181 51.3471 241.181ZM59.9369 242.477C59.2249 242.477 58.6009 242.285 58.0649 241.901C57.5289 241.509 57.1089 240.969 56.8049 240.281C56.5089 239.585 56.3609 238.777 56.3609 237.857C56.3609 236.929 56.5089 236.121 56.8049 235.433C57.1089 234.745 57.5249 234.209 58.0529 233.825C58.5889 233.441 59.2129 233.249 59.9249 233.249C60.6369 233.249 61.2569 233.441 61.7849 233.825C62.3209 234.209 62.7369 234.749 63.0329 235.445C63.3369 236.133 63.4889 236.937 63.4889 237.857C63.4889 238.777 63.3409 239.585 63.0449 240.281C62.7489 240.969 62.3329 241.509 61.7969 241.901C61.2689 242.285 60.6489 242.477 59.9369 242.477ZM59.9369 241.181C60.3769 241.181 60.7569 241.045 61.0769 240.773C61.3969 240.501 61.6449 240.117 61.8209 239.621C61.9969 239.125 62.0849 238.537 62.0849 237.857C62.0849 237.177 61.9969 236.589 61.8209 236.093C61.6449 235.597 61.3969 235.213 61.0769 234.941C60.7569 234.669 60.3729 234.533 59.9249 234.533C59.4849 234.533 59.1049 234.669 58.7849 234.941C58.4649 235.213 58.2169 235.597 58.0409 236.093C57.8649 236.589 57.7769 237.177 57.7769 237.857C57.7769 238.529 57.8649 239.117 58.0409 239.621C58.2169 240.117 58.4649 240.501 58.7849 240.773C59.1129 241.045 59.4969 241.181 59.9369 241.181Z" fill="#525252"/>
<path d="M24.588 282.311C24.116 282.311 23.672 282.227 23.256 282.059C22.84 281.883 22.48 281.639 22.176 281.327C21.872 281.015 21.656 280.639 21.528 280.199L22.716 279.743C22.868 280.167 23.116 280.491 23.46 280.715C23.804 280.939 24.18 281.051 24.588 281.051C24.924 281.051 25.22 280.975 25.476 280.823C25.732 280.671 25.932 280.463 26.076 280.199C26.228 279.935 26.304 279.635 26.304 279.299C26.304 278.955 26.228 278.655 26.076 278.399C25.932 278.135 25.732 277.931 25.476 277.787C25.22 277.635 24.924 277.559 24.588 277.559C24.252 277.559 23.944 277.635 23.664 277.787C23.384 277.939 23.18 278.143 23.052 278.399L21.912 278.147L22.608 273.227H27.372V274.427H23.16L23.7 273.839L23.184 277.607L22.74 277.307C22.98 276.971 23.272 276.727 23.616 276.575C23.96 276.423 24.352 276.347 24.792 276.347C25.376 276.347 25.884 276.479 26.316 276.743C26.756 276.999 27.096 277.351 27.336 277.799C27.584 278.239 27.708 278.739 27.708 279.299C27.708 279.867 27.572 280.379 27.3 280.835C27.028 281.291 26.656 281.651 26.184 281.915C25.72 282.179 25.188 282.311 24.588 282.311ZM29.7748 282.167V280.607H31.1548V282.167H29.7748ZM36.851 282.311C36.139 282.311 35.515 282.119 34.979 281.735C34.443 281.343 34.023 280.803 33.719 280.115C33.423 279.419 33.275 278.611 33.275 277.691C33.275 276.763 33.423 275.955 33.719 275.267C34.023 274.579 34.439 274.043 34.967 273.659C35.503 273.275 36.127 273.083 36.839 273.083C37.551 273.083 38.171 273.275 38.699 273.659C39.235 274.043 39.651 274.583 39.947 275.279C40.251 275.967 40.403 276.771 40.403 277.691C40.403 278.611 40.255 279.419 39.959 280.115C39.663 280.803 39.247 281.343 38.711 281.735C38.183 282.119 37.563 282.311 36.851 282.311ZM36.851 281.015C37.291 281.015 37.671 280.879 37.991 280.607C38.311 280.335 38.559 279.951 38.735 279.455C38.911 278.959 38.999 278.371 38.999 277.691C38.999 277.011 38.911 276.423 38.735 275.927C38.559 275.431 38.311 275.047 37.991 274.775C37.671 274.503 37.287 274.367 36.839 274.367C36.399 274.367 36.019 274.503 35.699 274.775C35.379 275.047 35.131 275.431 34.955 275.927C34.779 276.423 34.691 277.011 34.691 277.691C34.691 278.363 34.779 278.951 34.955 279.455C35.131 279.951 35.379 280.335 35.699 280.607C36.027 280.879 36.411 281.015 36.851 281.015ZM45.4408 282.311C44.7288 282.311 44.1048 282.119 43.5688 281.735C43.0328 281.343 42.6128 280.803 42.3088 280.115C42.0128 279.419 41.8648 278.611 41.8648 277.691C41.8648 276.763 42.0128 275.955 42.3088 275.267C42.6128 274.579 43.0288 274.043 43.5568 273.659C44.0928 273.275 44.7168 273.083 45.4288 273.083C46.1408 273.083 46.7608 273.275 47.2888 273.659C47.8248 274.043 48.2408 274.583 48.5368 275.279C48.8408 275.967 48.9928 276.771 48.9928 277.691C48.9928 278.611 48.8448 279.419 48.5488 280.115C48.2528 280.803 47.8368 281.343 47.3008 281.735C46.7728 282.119 46.1528 282.311 45.4408 282.311ZM45.4408 281.015C45.8808 281.015 46.2608 280.879 46.5808 280.607C46.9008 280.335 47.1488 279.951 47.3248 279.455C47.5008 278.959 47.5888 278.371 47.5888 277.691C47.5888 277.011 47.5008 276.423 47.3248 275.927C47.1488 275.431 46.9008 275.047 46.5808 274.775C46.2608 274.503 45.8768 274.367 45.4288 274.367C44.9888 274.367 44.6088 274.503 44.2888 274.775C43.9688 275.047 43.7208 275.431 43.5448 275.927C43.3688 276.423 43.2808 277.011 43.2808 277.691C43.2808 278.363 43.3688 278.951 43.5448 279.455C43.7208 279.951 43.9688 280.335 44.2888 280.607C44.6168 280.879 45.0008 281.015 45.4408 281.015ZM54.0307 282.311C53.3187 282.311 52.6947 282.119 52.1587 281.735C51.6227 281.343 51.2027 280.803 50.8987 280.115C50.6027 279.419 50.4547 278.611 50.4547 277.691C50.4547 276.763 50.6027 275.955 50.8987 275.267C51.2027 274.579 51.6187 274.043 52.1467 273.659C52.6827 273.275 53.3067 273.083 54.0187 273.083C54.7307 273.083 55.3507 273.275 55.8787 273.659C56.4147 274.043 56.8307 274.583 57.1267 275.279C57.4307 275.967 57.5827 276.771 57.5827 277.691C57.5827 278.611 57.4347 279.419 57.1387 280.115C56.8427 280.803 56.4267 281.343 55.8907 281.735C55.3627 282.119 54.7427 282.311 54.0307 282.311ZM54.0307 281.015C54.4707 281.015 54.8507 280.879 55.1707 280.607C55.4907 280.335 55.7387 279.951 55.9147 279.455C56.0907 278.959 56.1787 278.371 56.1787 277.691C56.1787 277.011 56.0907 276.423 55.9147 275.927C55.7387 275.431 55.4907 275.047 55.1707 274.775C54.8507 274.503 54.4667 274.367 54.0187 274.367C53.5787 274.367 53.1987 274.503 52.8787 274.775C52.5587 275.047 52.3107 275.431 52.1347 275.927C51.9587 276.423 51.8707 277.011 51.8707 277.691C51.8707 278.363 51.9587 278.951 52.1347 279.455C52.3107 279.951 52.5587 280.335 52.8787 280.607C53.2067 280.879 53.5907 281.015 54.0307 281.015Z" fill="#525252"/>
<path d="M33.0131 322.144C32.3011 322.144 31.6771 321.952 31.1411 321.568C30.6051 321.176 30.1851 320.636 29.8811 319.948C29.5851 319.252 29.4371 318.444 29.4371 317.524C29.4371 316.596 29.5851 315.788 29.8811 315.1C30.1851 314.412 30.6011 313.876 31.1291 313.492C31.6651 313.108 32.2891 312.916 33.0011 312.916C33.7131 312.916 34.3331 313.108 34.8611 313.492C35.3971 313.876 35.8131 314.416 36.1091 315.112C36.4131 315.8 36.5651 316.604 36.5651 317.524C36.5651 318.444 36.4171 319.252 36.1211 319.948C35.8251 320.636 35.4091 321.176 34.8731 321.568C34.3451 321.952 33.7251 322.144 33.0131 322.144ZM33.0131 320.848C33.4531 320.848 33.8331 320.712 34.1531 320.44C34.4731 320.168 34.7211 319.784 34.8971 319.288C35.0731 318.792 35.1611 318.204 35.1611 317.524C35.1611 316.844 35.0731 316.256 34.8971 315.76C34.7211 315.264 34.4731 314.88 34.1531 314.608C33.8331 314.336 33.4491 314.2 33.0011 314.2C32.5611 314.2 32.1811 314.336 31.8611 314.608C31.5411 314.88 31.2931 315.264 31.1171 315.76C30.9411 316.256 30.8531 316.844 30.8531 317.524C30.8531 318.196 30.9411 318.784 31.1171 319.288C31.2931 319.784 31.5411 320.168 31.8611 320.44C32.1891 320.712 32.5731 320.848 33.0131 320.848Z" fill="#525252"/>
</g>
<path d="M91 272C91 263.716 97.7157 257 106 257C114.284 257 121 263.716 121 272V325H91V272Z" fill="#34CAA5" fill-opacity="0.1"/>
<path d="M151.545 220C151.545 211.716 158.261 205 166.545 205C174.83 205 181.545 211.716 181.545 220V325H151.545V220Z" fill="#34CAA5" fill-opacity="0.1"/>
<path d="M212.091 300C212.091 291.716 218.807 285 227.091 285C235.375 285 242.091 291.716 242.091 300V325H212.091V300Z" fill="#34CAA5" fill-opacity="0.1"/>
<path d="M272.636 179C272.636 170.716 279.352 164 287.636 164C295.921 164 302.636 170.716 302.636 179V325H272.636V179Z" fill="#34CAA5" fill-opacity="0.1"/>
<path d="M333.182 259C333.182 250.716 339.897 244 348.182 244C356.466 244 363.182 250.716 363.182 259V325H333.182V259Z" fill="#34CAA5" fill-opacity="0.1"/>
<path d="M393.728 124C393.728 115.716 400.443 109 408.728 109C417.012 109 423.728 115.716 423.728 124V325H393.728V124Z" fill="url(#paint0_linear_2120_968)"/>
<path d="M454.273 259C454.273 250.716 460.989 244 469.273 244C477.557 244 484.273 250.716 484.273 259V325H454.273V259Z" fill="#34CAA5" fill-opacity="0.1"/>
<path d="M514.818 209C514.818 200.716 521.534 194 529.818 194C538.103 194 544.818 200.716 544.818 209V325H514.818V209Z" fill="#34CAA5" fill-opacity="0.1"/>
<path d="M575.364 158C575.364 149.716 582.079 143 590.364 143C598.648 143 605.364 149.716 605.364 158V325H575.364V158Z" fill="#34CAA5" fill-opacity="0.1"/>
<path d="M635.909 289C635.909 280.716 642.625 274 650.909 274C659.193 274 665.909 280.716 665.909 289V325H635.909V289Z" fill="#34CAA5" fill-opacity="0.1"/>
<path d="M696.455 169C696.455 160.716 703.17 154 711.455 154C719.739 154 726.455 160.716 726.455 169V325H696.455V169Z" fill="#34CAA5" fill-opacity="0.1"/>
<path d="M757 189C757 180.716 763.716 174 772 174C780.284 174 787 180.716 787 189V325H757V189Z" fill="#34CAA5" fill-opacity="0.1"/>
<g filter="url(#filter0_d_2120_968)">
<path fill-rule="evenodd" clip-rule="evenodd" d="M369 79C369 76.2386 371.239 74 374 74H444C446.761 74 449 76.2386 449 79V95C449 97.7614 446.761 100 444 100L415 100L409 105.977L403 100L374 100C371.239 100 369 97.7614 369 95V79Z" fill="#090C2C"/>
<path d="M387.533 92.0909V81.1818H388.232V92.0909H387.533ZM389.719 84.5653C389.673 84.1619 389.486 83.8494 389.156 83.6278C388.827 83.4034 388.412 83.2912 387.912 83.2912C387.554 83.2912 387.244 83.348 386.983 83.4616C386.722 83.5724 386.518 83.7259 386.374 83.9219C386.232 84.1151 386.161 84.3352 386.161 84.5824C386.161 84.7898 386.209 84.9687 386.305 85.1193C386.405 85.2699 386.534 85.3963 386.693 85.4986C386.855 85.598 387.028 85.6818 387.213 85.75C387.398 85.8153 387.575 85.8693 387.746 85.9119L388.598 86.1335C388.876 86.2017 389.162 86.294 389.455 86.4105C389.747 86.527 390.018 86.6804 390.268 86.8707C390.518 87.0611 390.72 87.2969 390.874 87.5781C391.03 87.8594 391.108 88.196 391.108 88.5881C391.108 89.0824 390.98 89.5213 390.724 89.9048C390.472 90.2884 390.104 90.5909 389.621 90.8125C389.141 91.0341 388.56 91.1449 387.878 91.1449C387.224 91.1449 386.659 91.0412 386.182 90.8338C385.705 90.6264 385.331 90.3324 385.061 89.9517C384.791 89.5682 384.642 89.1136 384.614 88.5881H385.935C385.96 88.9034 386.063 89.1662 386.241 89.3764C386.423 89.5838 386.655 89.7386 386.936 89.8409C387.22 89.9403 387.531 89.9901 387.869 89.9901C388.241 89.9901 388.572 89.9318 388.862 89.8153C389.155 89.696 389.385 89.5312 389.553 89.321C389.72 89.108 389.804 88.8594 389.804 88.5753C389.804 88.3168 389.73 88.1051 389.582 87.9403C389.438 87.7756 389.24 87.6392 388.99 87.5312C388.743 87.4233 388.463 87.3281 388.151 87.2457L387.119 86.9645C386.42 86.7741 385.866 86.4943 385.457 86.125C385.051 85.7557 384.848 85.267 384.848 84.6591C384.848 84.1562 384.984 83.7173 385.257 83.3423C385.53 82.9673 385.899 82.6761 386.365 82.4688C386.831 82.2585 387.357 82.1534 387.942 82.1534C388.533 82.1534 389.054 82.2571 389.506 82.4645C389.96 82.6719 390.318 82.9574 390.58 83.321C390.841 83.6818 390.977 84.0966 390.989 84.5653H389.719ZM392.379 89.2955V88.2301L396.15 82.2727H396.99V83.8409H396.457L393.76 88.1108V88.179H398.929V89.2955H392.379ZM396.517 91V88.9716L396.525 88.4858V82.2727H397.774V91H396.517ZM403.294 91.1193C402.76 91.1193 402.28 91.017 401.854 90.8125C401.431 90.6051 401.093 90.321 400.84 89.9602C400.587 89.5994 400.452 89.1875 400.435 88.7244H401.713C401.745 89.0994 401.911 89.4077 402.212 89.6491C402.513 89.8906 402.874 90.0114 403.294 90.0114C403.63 90.0114 403.926 89.9347 404.185 89.7812C404.446 89.625 404.651 89.4105 404.799 89.1378C404.949 88.8651 405.025 88.554 405.025 88.2045C405.025 87.8494 404.948 87.5327 404.794 87.2543C404.641 86.9759 404.429 86.7571 404.159 86.598C403.892 86.4389 403.586 86.358 403.239 86.3551C402.975 86.3551 402.709 86.4006 402.442 86.4915C402.175 86.5824 401.959 86.7017 401.794 86.8494L400.588 86.6705L401.078 82.2727H405.877V83.402H402.174L401.897 85.8438H401.948C402.118 85.679 402.344 85.5412 402.625 85.4304C402.909 85.3196 403.213 85.2642 403.537 85.2642C404.069 85.2642 404.542 85.3906 404.956 85.6435C405.374 85.8963 405.702 86.2415 405.941 86.679C406.182 87.1136 406.301 87.6136 406.299 88.179C406.301 88.7443 406.174 89.2486 405.915 89.6918C405.659 90.1349 405.304 90.4844 404.85 90.7401C404.398 90.9929 403.88 91.1193 403.294 91.1193ZM408.395 91.081C408.162 91.081 407.962 90.9986 407.794 90.8338C407.627 90.6662 407.543 90.4645 407.543 90.2287C407.543 89.9957 407.627 89.7969 407.794 89.6321C407.962 89.4645 408.162 89.3807 408.395 89.3807C408.628 89.3807 408.828 89.4645 408.996 89.6321C409.164 89.7969 409.248 89.9957 409.248 90.2287C409.248 90.3849 409.208 90.5284 409.128 90.6591C409.051 90.7869 408.949 90.8892 408.821 90.9659C408.694 91.0426 408.551 91.081 408.395 91.081ZM413.659 91.1449C412.986 91.142 412.411 90.9645 411.933 90.6122C411.456 90.2599 411.091 89.7472 410.838 89.0739C410.585 88.4006 410.459 87.5895 410.459 86.6406C410.459 85.6946 410.585 84.8864 410.838 84.2159C411.094 83.5455 411.46 83.0341 411.938 82.6818C412.418 82.3295 412.991 82.1534 413.659 82.1534C414.327 82.1534 414.899 82.331 415.376 82.6861C415.854 83.0384 416.219 83.5497 416.472 84.2202C416.727 84.8878 416.855 85.6946 416.855 86.6406C416.855 87.5923 416.729 88.4048 416.476 89.0781C416.223 89.7486 415.858 90.2614 415.381 90.6165C414.903 90.9688 414.33 91.1449 413.659 91.1449ZM413.659 90.0071C414.25 90.0071 414.712 89.7188 415.044 89.142C415.379 88.5653 415.547 87.7315 415.547 86.6406C415.547 85.9162 415.47 85.304 415.317 84.804C415.166 84.3011 414.949 83.9205 414.665 83.6619C414.384 83.4006 414.048 83.2699 413.659 83.2699C413.071 83.2699 412.609 83.5597 412.274 84.1392C411.939 84.7187 411.77 85.5526 411.767 86.6406C411.767 87.3679 411.842 87.983 411.993 88.4858C412.146 88.9858 412.364 89.3651 412.645 89.6236C412.926 89.8793 413.264 90.0071 413.659 90.0071ZM421.405 91.1449C420.732 91.142 420.157 90.9645 419.679 90.6122C419.202 90.2599 418.837 89.7472 418.584 89.0739C418.331 88.4006 418.205 87.5895 418.205 86.6406C418.205 85.6946 418.331 84.8864 418.584 84.2159C418.84 83.5455 419.206 83.0341 419.684 82.6818C420.164 82.3295 420.738 82.1534 421.405 82.1534C422.073 82.1534 422.645 82.331 423.123 82.6861C423.6 83.0384 423.965 83.5497 424.218 84.2202C424.473 84.8878 424.601 85.6946 424.601 86.6406C424.601 87.5923 424.475 88.4048 424.222 89.0781C423.969 89.7486 423.604 90.2614 423.127 90.6165C422.65 90.9688 422.076 91.1449 421.405 91.1449ZM421.405 90.0071C421.996 90.0071 422.458 89.7188 422.79 89.142C423.125 88.5653 423.293 87.7315 423.293 86.6406C423.293 85.9162 423.216 85.304 423.063 84.804C422.912 84.3011 422.695 83.9205 422.411 83.6619C422.13 83.4006 421.794 83.2699 421.405 83.2699C420.817 83.2699 420.355 83.5597 420.02 84.1392C419.685 84.7187 419.516 85.5526 419.513 86.6406C419.513 87.3679 419.588 87.983 419.739 88.4858C419.892 88.9858 420.11 89.3651 420.391 89.6236C420.672 89.8793 421.01 90.0071 421.405 90.0071ZM429.151 91.1449C428.478 91.142 427.903 90.9645 427.425 90.6122C426.948 90.2599 426.583 89.7472 426.33 89.0739C426.077 88.4006 425.951 87.5895 425.951 86.6406C425.951 85.6946 426.077 84.8864 426.33 84.2159C426.586 83.5455 426.952 83.0341 427.43 82.6818C427.91 82.3295 428.484 82.1534 429.151 82.1534C429.819 82.1534 430.391 82.331 430.869 82.6861C431.346 83.0384 431.711 83.5497 431.964 84.2202C432.219 84.8878 432.347 85.6946 432.347 86.6406C432.347 87.5923 432.221 88.4048 431.968 89.0781C431.715 89.7486 431.35 90.2614 430.873 90.6165C430.396 90.9688 429.822 91.1449 429.151 91.1449ZM429.151 90.0071C429.742 90.0071 430.204 89.7188 430.536 89.142C430.871 88.5653 431.039 87.7315 431.039 86.6406C431.039 85.9162 430.962 85.304 430.809 84.804C430.658 84.3011 430.441 83.9205 430.157 83.6619C429.876 83.4006 429.54 83.2699 429.151 83.2699C428.563 83.2699 428.102 83.5597 427.766 84.1392C427.431 84.7187 427.262 85.5526 427.259 86.6406C427.259 87.3679 427.335 87.983 427.485 88.4858C427.638 88.9858 427.856 89.3651 428.137 89.6236C428.418 89.8793 428.756 90.0071 429.151 90.0071Z" fill="white"/>
</g>
<defs>
<filter id="filter0_d_2120_968" x="363" y="70" width="96" height="47.9771" filterUnits="userSpaceOnUse" color-interpolation-filters="sRGB">
<feFlood flood-opacity="0" result="BackgroundImageFix"/>
<feColorMatrix in="SourceAlpha" type="matrix" values="0 0 0 0 0 0 0 0 0 0 0 0 0 0 0 0 0 0 127 0" result="hardAlpha"/>
<feOffset dx="2" dy="4"/>
<feGaussianBlur stdDeviation="4"/>
<feComposite in2="hardAlpha" operator="out"/>
<feColorMatrix type="matrix" values="0 0 0 0 0 0 0 0 0 0 0 0 0 0 0 0 0 0 0.1 0"/>
<feBlend mode="normal" in2="BackgroundImageFix" result="effect1_dropShadow_2120_968"/>
<feBlend mode="normal" in="SourceGraphic" in2="effect1_dropShadow_2120_968" result="shape"/>
</filter>
<linearGradient id="paint0_linear_2120_968" x1="408.728" y1="109" x2="408.728" y2="325" gradientUnits="userSpaceOnUse">
<stop stop-color="#34CAA5"/>
<stop offset="1" stop-color="#34CAA5" stop-opacity="0"/>
</linearGradient>
</defs>
</svg>
